<svg width="1440" height="5221" viewBox="0 0 1440 5221" fill="none" xmlns="http://www.w3.org/2000/svg">
<g clip-path="url(#clip0_44_649)">
<path d="M323.053 564.239H164.346V735.681H323.053V564.239Z" fill="url(#paint0_radial_44_649)" fill-opacity="0.06"/>
<path d="M957.879 49.9178H799.172V221.359H957.879V49.9178Z" fill="url(#paint1_radial_44_649)" fill-opacity="0.06"/>
<path d="M799.172 1078.56H640.465V1250H799.172V1078.56Z" fill="url(#paint2_radial_44_649)" fill-opacity="0.06"/>
<path d="M1434 735.679H1275.29V907.118H1434V735.679Z" fill="url(#paint3_radial_44_649)" fill-opacity="0.06"/>
<path d="M957.881 564.239H799.174V735.681H957.881V564.239Z" fill="url(#paint4_radial_44_649)" fill-opacity="0.06"/>
<path d="M-153.069 -635.841H-311.776V-464.4M-153.069 -635.841V-464.4M-153.069 -635.841H5.63772M-311.776 -464.4H-153.069M-311.776 -464.4V-292.962M-153.069 -464.4H5.63772M-153.069 -464.4V-292.962M5.63772 -635.841V-464.4M5.63772 -635.841H164.345M-311.776 -292.962H-153.069M-311.776 -292.962V-121.522M5.63772 -464.4H164.345M5.63772 -464.4V-292.962M-153.069 -292.962H5.63772M-153.069 -292.962V-121.522M164.345 -635.841V-464.4M164.345 -635.841H323.051M164.345 -464.4H323.051M164.345 -464.4V-292.962M5.63772 -292.962H164.345M5.63772 -292.962V-121.522M-153.069 -121.522H-311.776M-153.069 -121.522H5.63772M-153.069 -121.522V49.9178M-311.776 -121.522V49.9178M323.051 -635.841V-464.4M323.051 -635.841H481.758M323.051 -464.4H481.758M323.051 -464.4V-292.962M164.345 -292.962H323.051M164.345 -292.962V-121.522M5.63772 -121.522H164.345M5.63772 -121.522V49.9178M481.758 -635.841V-464.4M481.758 -635.841H640.465M481.758 -464.4H640.465M481.758 -464.4V-292.962M323.051 -292.962H481.758M323.051 -292.962V-121.522M164.345 -121.522H323.051M164.345 -121.522V49.9178M640.465 -635.841V-464.4M640.465 -635.841H799.172M640.465 -464.4H799.172M640.465 -464.4V-292.962M481.758 -292.962H640.465M481.758 -292.962V-121.522M323.051 -121.522H481.758M323.051 -121.522V49.9178M799.172 -635.841V-464.4M799.172 -635.841H957.879M799.172 -464.4H957.879M799.172 -464.4V-292.962M640.465 -292.962H799.172M640.465 -292.962V-121.522M481.758 -121.522H640.465M481.758 -121.522V49.9178M957.879 -635.841V-464.4M957.879 -635.841H1116.59M957.879 -464.4H1116.59M957.879 -464.4V-292.962M799.172 -292.962H957.879M799.172 -292.962V-121.522M640.465 -121.522H799.172M640.465 -121.522V49.9178M1116.59 -635.841V-464.4M1116.59 -635.841H1275.29M1116.59 -464.4H1275.29M1116.59 -464.4V-292.962M957.879 -292.962H1116.59M957.879 -292.962V-121.522M799.172 -121.522H957.879M799.172 -121.522V49.9178M1275.29 -635.841V-464.4M1275.29 -635.841H1434M1275.29 -464.4H1434M1275.29 -464.4V-292.962M1116.59 -292.962H1275.29M1116.59 -292.962V-121.522M957.879 -121.522H1116.59M957.879 -121.522V49.9178M1434 -635.841V-464.4M1434 -635.841H1592.7M1434 -464.4H1592.7M1434 -464.4V-292.962M1275.29 -292.962H1434M1275.29 -292.962V-121.522M1116.59 -121.522H1275.29M1116.59 -121.522V49.9178M1592.7 -635.841V-464.4M1592.7 -635.841H1751.41M1592.7 -464.4H1751.41M1592.7 -464.4V-292.962M1434 -292.962H1592.7M1434 -292.962V-121.522M1275.29 -121.522H1434M1275.29 -121.522V49.9178M1751.41 -635.841V-464.4M1751.41 -635.841H1910.12M1751.41 -464.4H1910.12M1751.41 -464.4V-292.962M1592.7 -292.962H1751.41M1592.7 -292.962V-121.522M1434 -121.522H1592.7M1434 -121.522V49.9178M1910.12 -635.841V-464.4M1910.12 -635.841H2068.83V-464.4M1910.12 -464.4H2068.83M1910.12 -464.4V-292.962M1751.41 -292.962H1910.12M1751.41 -292.962V-121.522M1592.7 -121.522H1751.41M1592.7 -121.522V49.9178M2068.83 -464.4V-292.962M1910.12 -292.962H2068.83M1910.12 -292.962V-121.522M1751.41 -121.522H1910.12M1751.41 -121.522V49.9178M2068.83 -292.962V-121.522M1910.12 -121.522H2068.83M1910.12 -121.522V49.9178M2068.83 -121.522V49.9178M-153.069 49.9178H-311.776M-153.069 49.9178H5.63772M-153.069 49.9178V221.359M-311.776 49.9178V221.359M5.63772 49.9178H164.345M5.63772 49.9178V221.359M164.345 49.9178H323.051M164.345 49.9178V221.359M323.051 49.9178H481.758M323.051 49.9178V221.359M481.758 49.9178H640.465M481.758 49.9178V221.359M640.465 49.9178H799.172M640.465 49.9178V221.359M799.172 49.9178H957.879M799.172 49.9178V221.359M957.879 49.9178H1116.59M957.879 49.9178V221.359M1116.59 49.9178H1275.29M1116.59 49.9178V221.359M1275.29 49.9178H1434M1275.29 49.9178V221.359M1434 49.9178H1592.7M1434 49.9178V221.359M1592.7 49.9178H1751.41M1592.7 49.9178V221.359M1751.41 49.9178H1910.12M1751.41 49.9178V221.359M1910.12 49.9178H2068.83M1910.12 49.9178V221.359M2068.83 49.9178V221.359M-153.069 221.359H-311.776M-153.069 221.359H5.63772M-153.069 221.359V392.8M-311.776 221.359V392.8M5.63772 221.359H164.345M5.63772 221.359V392.8M164.345 221.359H323.051M164.345 221.359V392.8M323.051 221.359H481.758M323.051 221.359V392.8M481.758 221.359H640.465M481.758 221.359V392.8M640.465 221.359H799.172M640.465 221.359V392.8M799.172 221.359H957.879M799.172 221.359V392.8M957.879 221.359H1116.59M957.879 221.359V392.8M1116.59 221.359H1275.29M1116.59 221.359V392.8M1275.29 221.359H1434M1275.29 221.359V392.8M1434 221.359H1592.7M1434 221.359V392.8M1592.7 221.359H1751.41M1592.7 221.359V392.8M1751.41 221.359H1910.12M1751.41 221.359V392.8M1910.12 221.359H2068.83M1910.12 221.359V392.8M2068.83 221.359V392.8M-153.069 392.8H-311.776M-153.069 392.8H5.63772M-153.069 392.8V564.238M-311.776 392.8V564.238M5.63772 392.8H164.345M5.63772 392.8V564.238M164.345 392.8H323.051M164.345 392.8V564.238M323.051 392.8H481.758M323.051 392.8V564.238M481.758 392.8H640.465M481.758 392.8V564.238M640.465 392.8H799.172M640.465 392.8V564.238M799.172 392.8H957.879M799.172 392.8V564.238M957.879 392.8H1116.59M957.879 392.8V564.238M1116.59 392.8H1275.29M1116.59 392.8V564.238M1275.29 392.8H1434M1275.29 392.8V564.238M1434 392.8H1592.7M1434 392.8V564.238M1592.7 392.8H1751.41M1592.7 392.8V564.238M1751.41 392.8H1910.12M1751.41 392.8V564.238M1910.12 392.8H2068.83M1910.12 392.8V564.238M2068.83 392.8V564.238M-153.069 564.238H-311.776M-153.069 564.238H5.63772M-153.069 564.238V735.679M-311.776 564.238V735.679M5.63772 564.238H164.345M5.63772 564.238V735.679M164.345 564.238H323.051M164.345 564.238V735.679M323.051 564.238H481.758M323.051 564.238V735.679M481.758 564.238H640.465M481.758 564.238V735.679M640.465 564.238H799.172M640.465 564.238V735.679M799.172 564.238H957.879M799.172 564.238V735.679M957.879 564.238H1116.59M957.879 564.238V735.679M1116.59 564.238H1275.29M1116.59 564.238V735.679M1275.29 564.238H1434M1275.29 564.238V735.679M1434 564.238H1592.7M1434 564.238V735.679M1592.7 564.238H1751.41M1592.7 564.238V735.679M1751.41 564.238H1910.12M1751.41 564.238V735.679M1910.12 564.238H2068.83M1910.12 564.238V735.679M2068.83 564.238V735.679M-153.069 735.679H-311.776M-153.069 735.679H5.63772M-153.069 735.679V907.118M-311.776 735.679V907.118M5.63772 735.679H164.345M5.63772 735.679V907.118M164.345 735.679H323.051M164.345 735.679V907.118M323.051 735.679H481.758M323.051 735.679V907.118M481.758 735.679H640.465M481.758 735.679V907.118M640.465 735.679H799.172M640.465 735.679V907.118M799.172 735.679H957.879M799.172 735.679V907.118M957.879 735.679H1116.59M957.879 735.679V907.118M1116.59 735.679H1275.29M1116.59 735.679V907.118M1275.29 735.679H1434M1275.29 735.679V907.118M1434 735.679H1592.7M1434 735.679V907.118M1592.7 735.679H1751.41M1592.7 735.679V907.118M1751.41 735.679H1910.12M1751.41 735.679V907.118M1910.12 735.679H2068.83M1910.12 735.679V907.118M2068.83 735.679V907.118M-153.069 907.118H-311.776M-153.069 907.118H5.63772M-153.069 907.118V1078.56M-311.776 907.118V1078.56M5.63772 907.118H164.345M5.63772 907.118V1078.56M164.345 907.118H323.051M164.345 907.118V1078.56M323.051 907.118H481.758M323.051 907.118V1078.56M481.758 907.118H640.465M481.758 907.118V1078.56M640.465 907.118H799.172M640.465 907.118V1078.56M799.172 907.118H957.879M799.172 907.118V1078.56M957.879 907.118H1116.59M957.879 907.118V1078.56M1116.59 907.118H1275.29M1116.59 907.118V1078.56M1275.29 907.118H1434M1275.29 907.118V1078.56M1434 907.118H1592.7M1434 907.118V1078.56M1592.7 907.118H1751.41M1592.7 907.118V1078.56M1751.41 907.118H1910.12M1751.41 907.118V1078.56M1910.12 907.118H2068.83M1910.12 907.118V1078.56M2068.83 907.118V1078.56M-153.069 1078.56H-311.776M-153.069 1078.56H5.63772M-153.069 1078.56V1250M-311.776 1078.56V1250M5.63772 1078.56H164.345M5.63772 1078.56V1250M164.345 1078.56H323.051M164.345 1078.56V1250M323.051 1078.56H481.758M323.051 1078.56V1250M481.758 1078.56H640.465M481.758 1078.56V1250M640.465 1078.56H799.172M640.465 1078.56V1250M799.172 1078.56H957.879M799.172 1078.56V1250M957.879 1078.56H1116.59M957.879 1078.56V1250M1116.59 1078.56H1275.29M1116.59 1078.56V1250M1275.29 1078.56H1434M1275.29 1078.56V1250M1434 1078.56H1592.7M1434 1078.56V1250M1592.7 1078.56H1751.41M1592.7 1078.56V1250M1751.41 1078.56H1910.12M1751.41 1078.56V1250M1910.12 1078.56H2068.83M1910.12 1078.56V1250M2068.83 1078.56V1250M-153.069 1250H-311.776M-153.069 1250H5.63772M-153.069 1250V1421.44M-311.776 1250V1421.44M5.63772 1250H164.345M5.63772 1250V1421.44M164.345 1250H323.051M164.345 1250V1421.44M323.051 1250H481.758M323.051 1250V1421.44M481.758 1250H640.465M481.758 1250V1421.44M640.465 1250H799.172M640.465 1250V1421.44M799.172 1250H957.879M799.172 1250V1421.44M957.879 1250H1116.59M957.879 1250V1421.44M1116.59 1250H1275.29M1116.59 1250V1421.44M1275.29 1250H1434M1275.29 1250V1421.44M1434 1250H1592.7M1434 1250V1421.44M1592.7 1250H1751.41M1592.7 1250V1421.44M1751.41 1250H1910.12M1751.41 1250V1421.44M1910.12 1250H2068.83M1910.12 1250V1421.44M2068.83 1250V1421.44M-153.069 1421.44H-311.776M-153.069 1421.44H5.63772M-153.069 1421.44V1592.89M-311.776 1421.44V1592.89M5.63772 1421.44H164.345M5.63772 1421.44V1592.89M164.345 1421.44H323.051M164.345 1421.44V1592.89M323.051 1421.44H481.758M323.051 1421.44V1592.89M481.758 1421.44H640.465M481.758 1421.44V1592.89M640.465 1421.44H799.172M640.465 1421.44V1592.89M799.172 1421.44H957.879M799.172 1421.44V1592.89M957.879 1421.44H1116.59M957.879 1421.44V1592.89M1116.59 1421.44H1275.29M1116.59 1421.44V1592.89M1275.29 1421.44H1434M1275.29 1421.44V1592.89M1434 1421.44H1592.7M1434 1421.44V1592.89M1592.7 1421.44H1751.41M1592.7 1421.44V1592.89M1751.41 1421.44H1910.12M1751.41 1421.44V1592.89M1910.12 1421.44H2068.83M1910.12 1421.44V1592.89M2068.83 1421.44V1592.89M-153.069 1592.89H-311.776M-153.069 1592.89H5.63772M-153.069 1592.89V1764.32M-311.776 1592.89V1764.32M5.63772 1592.89H164.345M5.63772 1592.89V1764.32M164.345 1592.89H323.051M164.345 1592.89V1764.32M323.051 1592.89H481.758M323.051 1592.89V1764.32M481.758 1592.89H640.465M481.758 1592.89V1764.32M640.465 1592.89H799.172M640.465 1592.89V1764.32M799.172 1592.89H957.879M799.172 1592.89V1764.32M957.879 1592.89H1116.59M957.879 1592.89V1764.32M1116.59 1592.89H1275.29M1116.59 1592.89V1764.32M1275.29 1592.89H1434M1275.29 1592.89V1764.32M1434 1592.89H1592.7M1434 1592.89V1764.32M1592.7 1592.89H1751.41M1592.7 1592.89V1764.32M1751.41 1592.89H1910.12M1751.41 1592.89V1764.32M1910.12 1592.89H2068.83M1910.12 1592.89V1764.32M2068.83 1592.89V1764.32M-153.069 1764.32H-311.776M-153.069 1764.32H5.63772M-153.069 1764.32V1935.75M-311.776 1764.32V1935.75H-153.069M5.63772 1764.32H164.345M5.63772 1764.32V1935.75M164.345 1764.32H323.051M164.345 1764.32V1935.75M323.051 1764.32H481.758M323.051 1764.32V1935.75M481.758 1764.32H640.465M481.758 1764.32V1935.75M640.465 1764.32H799.172M640.465 1764.32V1935.75M799.172 1764.32H957.879M799.172 1764.32V1935.75M957.879 1764.32H1116.59M957.879 1764.32V1935.75M1116.59 1764.32H1275.29M1116.59 1764.32V1935.75M1275.29 1764.32H1434M1275.29 1764.32V1935.75M1434 1764.32H1592.7M1434 1764.32V1935.75M1592.7 1764.32H1751.41M1592.7 1764.32V1935.75M1751.41 1764.32H1910.12M1751.41 1764.32V1935.75M1910.12 1764.32H2068.83M1910.12 1764.32V1935.75M2068.83 1764.32V1935.75H1910.12M-153.069 1935.75H5.63772M5.63772 1935.75H164.345M164.345 1935.75H323.051M323.051 1935.75H481.758M481.758 1935.75H640.465M640.465 1935.75H799.172M799.172 1935.75H957.879M957.879 1935.75H1116.59M1116.59 1935.75H1275.29M1275.29 1935.75H1434M1434 1935.75H1592.7M1592.7 1935.75H1751.41M1751.41 1935.75H1910.12" stroke="white" stroke-opacity="0.15"/>
<path d="M-153.293 1203H-312V1374.44M-153.293 1203V1374.44M-153.293 1203H5.41354M-312 1374.44H-153.293M-312 1374.44V1545.88M-153.293 1374.44H5.41354M-153.293 1374.44V1545.88M5.41354 1203V1374.44M5.41354 1203H164.12M-312 1545.88H-153.293M-312 1545.88V1717.32M5.41354 1374.44H164.12M5.41354 1374.44V1545.88M-153.293 1545.88H5.41354M-153.293 1545.88V1717.32M164.12 1203V1374.44M164.12 1203H322.827M164.12 1374.44H322.827M164.12 1374.44V1545.88M5.41354 1545.88H164.12M5.41354 1545.88V1717.32M-153.293 1717.32H-312M-153.293 1717.32H5.41354M-153.293 1717.32V1888.76M-312 1717.32V1888.76M322.827 1203V1374.44M322.827 1203H481.534M322.827 1374.44H481.534M322.827 1374.44V1545.88M164.12 1545.88H322.827M164.12 1545.88V1717.32M5.41354 1717.32H164.12M5.41354 1717.32V1888.76M481.534 1203V1374.44M481.534 1203H640.241M481.534 1374.44H640.241M481.534 1374.44V1545.88M322.827 1545.88H481.534M322.827 1545.88V1717.32M164.12 1717.32H322.827M164.12 1717.32V1888.76M640.241 1203V1374.44M640.241 1203H798.948M640.241 1374.44H798.948M640.241 1374.44V1545.88M481.534 1545.88H640.241M481.534 1545.88V1717.32M322.827 1717.32H481.534M322.827 1717.32V1888.76M798.948 1203V1374.44M798.948 1203H957.655M798.948 1374.44H957.655M798.948 1374.44V1545.88M640.241 1545.88H798.948M640.241 1545.88V1717.32M481.534 1717.32H640.241M481.534 1717.32V1888.76M957.655 1203V1374.44M957.655 1203H1116.36M957.655 1374.44H1116.36M957.655 1374.44V1545.88M798.948 1545.88H957.655M798.948 1545.88V1717.32M640.241 1717.32H798.948M640.241 1717.32V1888.76M1116.36 1203V1374.44M1116.36 1203H1275.07M1116.36 1374.44H1275.07M1116.36 1374.44V1545.88M957.655 1545.88H1116.36M957.655 1545.88V1717.32M798.948 1717.32H957.655M798.948 1717.32V1888.76M1275.07 1203V1374.44M1275.07 1203H1433.78M1275.07 1374.44H1433.78M1275.07 1374.44V1545.88M1116.36 1545.88H1275.07M1116.36 1545.88V1717.32M957.655 1717.32H1116.36M957.655 1717.32V1888.76M1433.78 1203V1374.44M1433.78 1203H1592.48M1433.78 1374.44H1592.48M1433.78 1374.44V1545.88M1275.07 1545.88H1433.78M1275.07 1545.88V1717.32M1116.36 1717.32H1275.07M1116.36 1717.32V1888.76M1592.48 1203V1374.44M1592.48 1203H1751.19M1592.48 1374.44H1751.19M1592.48 1374.44V1545.88M1433.78 1545.88H1592.48M1433.78 1545.88V1717.32M1275.07 1717.32H1433.78M1275.07 1717.32V1888.76M1751.19 1203V1374.44M1751.19 1203H1909.9M1751.19 1374.44H1909.9M1751.19 1374.44V1545.88M1592.48 1545.88H1751.19M1592.48 1545.88V1717.32M1433.78 1717.32H1592.48M1433.78 1717.32V1888.76M1909.9 1203V1374.44M1909.9 1203H2068.6V1374.44M1909.9 1374.44H2068.6M1909.9 1374.44V1545.88M1751.19 1545.88H1909.9M1751.19 1545.88V1717.32M1592.48 1717.32H1751.19M1592.48 1717.32V1888.76M2068.6 1374.44V1545.88M1909.9 1545.88H2068.6M1909.9 1545.88V1717.32M1751.19 1717.32H1909.9M1751.19 1717.32V1888.76M2068.6 1545.88V1717.32M1909.9 1717.32H2068.6M1909.9 1717.32V1888.76M2068.6 1717.32V1888.76M-153.293 1888.76H-312M-153.293 1888.76H5.41354M-153.293 1888.76V2060.2M-312 1888.76V2060.2M5.41354 1888.76H164.12M5.41354 1888.76V2060.2M164.12 1888.76H322.827M164.12 1888.76V2060.2M322.827 1888.76H481.534M322.827 1888.76V2060.2M481.534 1888.76H640.241M481.534 1888.76V2060.2M640.241 1888.76H798.948M640.241 1888.76V2060.2M798.948 1888.76H957.655M798.948 1888.76V2060.2M957.655 1888.76H1116.36M957.655 1888.76V2060.2M1116.36 1888.76H1275.07M1116.36 1888.76V2060.2M1275.07 1888.76H1433.78M1275.07 1888.76V2060.2M1433.78 1888.76H1592.48M1433.78 1888.76V2060.2M1592.48 1888.76H1751.19M1592.48 1888.76V2060.2M1751.19 1888.76H1909.9M1751.19 1888.76V2060.2M1909.9 1888.76H2068.6M1909.9 1888.76V2060.2M2068.6 1888.76V2060.2M-153.293 2060.2H-312M-153.293 2060.2H5.41354M-153.293 2060.2V2231.64M-312 2060.2V2231.64M5.41354 2060.2H164.12M5.41354 2060.2V2231.64M164.12 2060.2H322.827M164.12 2060.2V2231.64M322.827 2060.2H481.534M322.827 2060.2V2231.64M481.534 2060.2H640.241M481.534 2060.2V2231.64M640.241 2060.2H798.948M640.241 2060.2V2231.64M798.948 2060.2H957.655M798.948 2060.2V2231.64M957.655 2060.2H1116.36M957.655 2060.2V2231.64M1116.36 2060.2H1275.07M1116.36 2060.2V2231.64M1275.07 2060.2H1433.78M1275.07 2060.2V2231.64M1433.78 2060.2H1592.48M1433.78 2060.2V2231.64M1592.48 2060.2H1751.19M1592.48 2060.2V2231.64M1751.19 2060.2H1909.9M1751.19 2060.2V2231.64M1909.9 2060.2H2068.6M1909.9 2060.2V2231.64M2068.6 2060.2V2231.64M-153.293 2231.64H-312M-153.293 2231.64H5.41354M-153.293 2231.64V2403.08M-312 2231.64V2403.08M5.41354 2231.64H164.12M5.41354 2231.64V2403.08M164.12 2231.64H322.827M164.12 2231.64V2403.08M322.827 2231.64H481.534M322.827 2231.64V2403.08M481.534 2231.64H640.241M481.534 2231.64V2403.08M640.241 2231.64H798.948M640.241 2231.64V2403.08M798.948 2231.64H957.655M798.948 2231.64V2403.08M957.655 2231.64H1116.36M957.655 2231.64V2403.08M1116.36 2231.64H1275.07M1116.36 2231.64V2403.08M1275.07 2231.64H1433.78M1275.07 2231.64V2403.08M1433.78 2231.64H1592.48M1433.78 2231.64V2403.08M1592.48 2231.64H1751.19M1592.48 2231.64V2403.08M1751.19 2231.64H1909.9M1751.19 2231.64V2403.08M1909.9 2231.64H2068.6M1909.9 2231.64V2403.08M2068.6 2231.64V2403.08M-153.293 2403.08H-312M-153.293 2403.08H5.41354M-153.293 2403.08V2574.52M-312 2403.08V2574.52M5.41354 2403.08H164.12M5.41354 2403.08V2574.52M164.12 2403.08H322.827M164.12 2403.08V2574.52M322.827 2403.08H481.534M322.827 2403.08V2574.52M481.534 2403.08H640.241M481.534 2403.08V2574.52M640.241 2403.08H798.948M640.241 2403.08V2574.52M798.948 2403.08H957.655M798.948 2403.08V2574.52M957.655 2403.08H1116.36M957.655 2403.08V2574.52M1116.36 2403.08H1275.07M1116.36 2403.08V2574.52M1275.07 2403.08H1433.78M1275.07 2403.08V2574.52M1433.78 2403.08H1592.48M1433.78 2403.08V2574.52M1592.48 2403.08H1751.19M1592.48 2403.08V2574.52M1751.19 2403.08H1909.9M1751.19 2403.08V2574.52M1909.9 2403.08H2068.6M1909.9 2403.08V2574.52M2068.6 2403.08V2574.52M-153.293 2574.52H-312M-153.293 2574.52H5.41354M-153.293 2574.52V2745.96M-312 2574.52V2745.96M5.41354 2574.52H164.12M5.41354 2574.52V2745.96M164.12 2574.52H322.827M164.12 2574.52V2745.96M322.827 2574.52H481.534M322.827 2574.52V2745.96M481.534 2574.52H640.241M481.534 2574.52V2745.96M640.241 2574.52H798.948M640.241 2574.52V2745.96M798.948 2574.52H957.655M798.948 2574.52V2745.96M957.655 2574.52H1116.36M957.655 2574.52V2745.96M1116.36 2574.52H1275.07M1116.36 2574.52V2745.96M1275.07 2574.52H1433.78M1275.07 2574.52V2745.96M1433.78 2574.52H1592.48M1433.78 2574.52V2745.96M1592.48 2574.52H1751.19M1592.48 2574.52V2745.96M1751.19 2574.52H1909.9M1751.19 2574.52V2745.96M1909.9 2574.52H2068.6M1909.9 2574.52V2745.96M2068.6 2574.52V2745.96M-153.293 2745.96H-312M-153.293 2745.96H5.41354M-153.293 2745.96V2917.4M-312 2745.96V2917.4M5.41354 2745.96H164.12M5.41354 2745.96V2917.4M164.12 2745.96H322.827M164.12 2745.96V2917.4M322.827 2745.96H481.534M322.827 2745.96V2917.4M481.534 2745.96H640.241M481.534 2745.96V2917.4M640.241 2745.96H798.948M640.241 2745.96V2917.4M798.948 2745.96H957.655M798.948 2745.96V2917.4M957.655 2745.96H1116.36M957.655 2745.96V2917.4M1116.36 2745.96H1275.07M1116.36 2745.96V2917.4M1275.07 2745.96H1433.78M1275.07 2745.96V2917.4M1433.78 2745.96H1592.48M1433.78 2745.96V2917.4M1592.48 2745.96H1751.19M1592.48 2745.96V2917.4M1751.19 2745.96H1909.9M1751.19 2745.96V2917.4M1909.9 2745.96H2068.6M1909.9 2745.96V2917.4M2068.6 2745.96V2917.4M-153.293 2917.4H-312M-153.293 2917.4H5.41354M-153.293 2917.4V3088.84M-312 2917.4V3088.84M5.41354 2917.4H164.12M5.41354 2917.4V3088.84M164.12 2917.4H322.827M164.12 2917.4V3088.84M322.827 2917.4H481.534M322.827 2917.4V3088.84M481.534 2917.4H640.241M481.534 2917.4V3088.84M640.241 2917.4H798.948M640.241 2917.4V3088.84M798.948 2917.4H957.655M798.948 2917.4V3088.84M957.655 2917.4H1116.36M957.655 2917.4V3088.84M1116.36 2917.4H1275.07M1116.36 2917.4V3088.84M1275.07 2917.4H1433.78M1275.07 2917.4V3088.84M1433.78 2917.4H1592.48M1433.78 2917.4V3088.84M1592.48 2917.4H1751.19M1592.48 2917.4V3088.84M1751.19 2917.4H1909.9M1751.19 2917.4V3088.84M1909.9 2917.4H2068.6M1909.9 2917.4V3088.84M2068.6 2917.4V3088.84M-153.293 3088.84H-312M-153.293 3088.84H5.41354M-153.293 3088.84V3260.28M-312 3088.84V3260.28M5.41354 3088.84H164.12M5.41354 3088.84V3260.28M164.12 3088.84H322.827M164.12 3088.84V3260.28M322.827 3088.84H481.534M322.827 3088.84V3260.28M481.534 3088.84H640.241M481.534 3088.84V3260.28M640.241 3088.84H798.948M640.241 3088.84V3260.28M798.948 3088.84H957.655M798.948 3088.84V3260.28M957.655 3088.84H1116.36M957.655 3088.84V3260.28M1116.36 3088.84H1275.07M1116.36 3088.84V3260.28M1275.07 3088.84H1433.78M1275.07 3088.84V3260.28M1433.78 3088.84H1592.48M1433.78 3088.84V3260.28M1592.48 3088.84H1751.19M1592.48 3088.84V3260.28M1751.19 3088.84H1909.9M1751.19 3088.84V3260.28M1909.9 3088.84H2068.6M1909.9 3088.84V3260.28M2068.6 3088.84V3260.28M-153.293 3260.28H-312M-153.293 3260.28H5.41354M-153.293 3260.28V3431.73M-312 3260.28V3431.73M5.41354 3260.28H164.12M5.41354 3260.28V3431.73M164.12 3260.28H322.827M164.12 3260.28V3431.73M322.827 3260.28H481.534M322.827 3260.28V3431.73M481.534 3260.28H640.241M481.534 3260.28V3431.73M640.241 3260.28H798.948M640.241 3260.28V3431.73M798.948 3260.28H957.655M798.948 3260.28V3431.73M957.655 3260.28H1116.36M957.655 3260.28V3431.73M1116.36 3260.28H1275.07M1116.36 3260.28V3431.73M1275.07 3260.28H1433.78M1275.07 3260.28V3431.73M1433.78 3260.28H1592.48M1433.78 3260.28V3431.73M1592.48 3260.28H1751.19M1592.48 3260.28V3431.73M1751.19 3260.28H1909.9M1751.19 3260.28V3431.73M1909.9 3260.28H2068.6M1909.9 3260.28V3431.73M2068.6 3260.28V3431.73M-153.293 3431.73H-312M-153.293 3431.73H5.41354M-153.293 3431.73V3603.16M-312 3431.73V3603.16M5.41354 3431.73H164.12M5.41354 3431.73V3603.16M164.12 3431.73H322.827M164.12 3431.73V3603.16M322.827 3431.73H481.534M322.827 3431.73V3603.16M481.534 3431.73H640.241M481.534 3431.73V3603.16M640.241 3431.73H798.948M640.241 3431.73V3603.16M798.948 3431.73H957.655M798.948 3431.73V3603.16M957.655 3431.73H1116.36M957.655 3431.73V3603.16M1116.36 3431.73H1275.07M1116.36 3431.73V3603.16M1275.07 3431.73H1433.78M1275.07 3431.73V3603.16M1433.78 3431.73H1592.48M1433.78 3431.73V3603.16M1592.48 3431.73H1751.19M1592.48 3431.73V3603.16M1751.19 3431.73H1909.9M1751.19 3431.73V3603.16M1909.9 3431.73H2068.6M1909.9 3431.73V3603.16M2068.6 3431.73V3603.16M-153.293 3603.16H-312M-153.293 3603.16H5.41354M-153.293 3603.16V3774.59M-312 3603.16V3774.59H-153.293M5.41354 3603.16H164.12M5.41354 3603.16V3774.59M164.12 3603.16H322.827M164.12 3603.16V3774.59M322.827 3603.16H481.534M322.827 3603.16V3774.59M481.534 3603.16H640.241M481.534 3603.16V3774.59M640.241 3603.16H798.948M640.241 3603.16V3774.59M798.948 3603.16H957.655M798.948 3603.16V3774.59M957.655 3603.16H1116.36M957.655 3603.16V3774.59M1116.36 3603.16H1275.07M1116.36 3603.16V3774.59M1275.07 3603.16H1433.78M1275.07 3603.16V3774.59M1433.78 3603.16H1592.48M1433.78 3603.16V3774.59M1592.48 3603.16H1751.19M1592.48 3603.16V3774.59M1751.19 3603.16H1909.9M1751.19 3603.16V3774.59M1909.9 3603.16H2068.6M1909.9 3603.16V3774.59M2068.6 3603.16V3774.59H1909.9M-153.293 3774.59H5.41354M5.41354 3774.59H164.12M164.12 3774.59H322.827M322.827 3774.59H481.534M481.534 3774.59H640.241M640.241 3774.59H798.948M798.948 3774.59H957.655M957.655 3774.59H1116.36M1116.36 3774.59H1275.07M1275.07 3774.59H1433.78M1433.78 3774.59H1592.48M1592.48 3774.59H1751.19M1751.19 3774.59H1909.9" stroke="white" stroke-opacity="0.15"/>
</g>
<g clip-path="url(#clip1_44_649)">
<path d="M323.053 2059.24H164.346V2230.68H323.053V2059.24Z" fill="url(#paint5_radial_44_649)" fill-opacity="0.06"/>
<path d="M957.879 1544.92H799.172V1716.36H957.879V1544.92Z" fill="url(#paint6_radial_44_649)" fill-opacity="0.06"/>
<path d="M481.707 1374H323V1545.44H481.707V1374Z" fill="url(#paint7_radial_44_649)" fill-opacity="0.06"/>
<path d="M1434.71 1716H1276V1887.44H1434.71V1716Z" fill="url(#paint8_radial_44_649)" fill-opacity="0.06"/>
<path d="M799.172 2573.56H640.465V2745H799.172V2573.56Z" fill="url(#paint9_radial_44_649)" fill-opacity="0.06"/>
<path d="M1434 2230.68H1275.29V2402.12H1434V2230.68Z" fill="url(#paint10_radial_44_649)" fill-opacity="0.06"/>
<path d="M957.881 2059.24H799.174V2230.68H957.881V2059.24Z" fill="url(#paint11_radial_44_649)" fill-opacity="0.06"/>
<path d="M-153.069 859.159H-311.776V1030.6M-153.069 859.159V1030.6M-153.069 859.159H5.63772M-311.776 1030.6H-153.069M-311.776 1030.6V1202.04M-153.069 1030.6H5.63772M-153.069 1030.6V1202.04M5.63772 859.159V1030.6M5.63772 859.159H164.345M-311.776 1202.04H-153.069M-311.776 1202.04V1373.48M5.63772 1030.6H164.345M5.63772 1030.6V1202.04M-153.069 1202.04H5.63772M-153.069 1202.04V1373.48M164.345 859.159V1030.6M164.345 859.159H323.051M164.345 1030.6H323.051M164.345 1030.6V1202.04M5.63772 1202.04H164.345M5.63772 1202.04V1373.48M-153.069 1373.48H-311.776M-153.069 1373.48H5.63772M-153.069 1373.48V1544.92M-311.776 1373.48V1544.92M323.051 859.159V1030.6M323.051 859.159H481.758M323.051 1030.6H481.758M323.051 1030.6V1202.04M164.345 1202.04H323.051M164.345 1202.04V1373.48M5.63772 1373.48H164.345M5.63772 1373.48V1544.92M481.758 859.159V1030.6M481.758 859.159H640.465M481.758 1030.6H640.465M481.758 1030.6V1202.04M323.051 1202.04H481.758M323.051 1202.04V1373.48M164.345 1373.48H323.051M164.345 1373.48V1544.92M640.465 859.159V1030.6M640.465 859.159H799.172M640.465 1030.6H799.172M640.465 1030.6V1202.04M481.758 1202.04H640.465M481.758 1202.04V1373.48M323.051 1373.48H481.758M323.051 1373.48V1544.92M799.172 859.159V1030.6M799.172 859.159H957.879M799.172 1030.6H957.879M799.172 1030.6V1202.04M640.465 1202.04H799.172M640.465 1202.04V1373.48M481.758 1373.48H640.465M481.758 1373.48V1544.92M957.879 859.159V1030.6M957.879 859.159H1116.59M957.879 1030.6H1116.59M957.879 1030.6V1202.04M799.172 1202.04H957.879M799.172 1202.04V1373.48M640.465 1373.48H799.172M640.465 1373.48V1544.92M1116.59 859.159V1030.6M1116.59 859.159H1275.29M1116.59 1030.6H1275.29M1116.59 1030.6V1202.04M957.879 1202.04H1116.59M957.879 1202.04V1373.48M799.172 1373.48H957.879M799.172 1373.48V1544.92M1275.29 859.159V1030.6M1275.29 859.159H1434M1275.29 1030.6H1434M1275.29 1030.6V1202.04M1116.59 1202.04H1275.29M1116.59 1202.04V1373.48M957.879 1373.48H1116.59M957.879 1373.48V1544.92M1434 859.159V1030.6M1434 859.159H1592.7M1434 1030.6H1592.7M1434 1030.6V1202.04M1275.29 1202.04H1434M1275.29 1202.04V1373.48M1116.59 1373.48H1275.29M1116.59 1373.48V1544.92M1592.7 859.159V1030.6M1592.7 859.159H1751.41M1592.7 1030.6H1751.41M1592.7 1030.6V1202.04M1434 1202.04H1592.7M1434 1202.04V1373.48M1275.29 1373.48H1434M1275.29 1373.48V1544.92M1751.41 859.159V1030.6M1751.41 859.159H1910.12M1751.41 1030.6H1910.12M1751.41 1030.6V1202.04M1592.7 1202.04H1751.41M1592.7 1202.04V1373.48M1434 1373.48H1592.7M1434 1373.48V1544.92M1910.12 859.159V1030.6M1910.12 859.159H2068.83V1030.6M1910.12 1030.6H2068.83M1910.12 1030.6V1202.04M1751.41 1202.04H1910.12M1751.41 1202.04V1373.48M1592.7 1373.48H1751.41M1592.7 1373.48V1544.92M2068.83 1030.6V1202.04M1910.12 1202.04H2068.83M1910.12 1202.04V1373.48M1751.41 1373.48H1910.12M1751.41 1373.48V1544.92M2068.83 1202.04V1373.48M1910.12 1373.48H2068.83M1910.12 1373.48V1544.92M2068.83 1373.48V1544.92M-153.069 1544.92H-311.776M-153.069 1544.92H5.63772M-153.069 1544.92V1716.36M-311.776 1544.92V1716.36M5.63772 1544.92H164.345M5.63772 1544.92V1716.36M164.345 1544.92H323.051M164.345 1544.92V1716.36M323.051 1544.92H481.758M323.051 1544.92V1716.36M481.758 1544.92H640.465M481.758 1544.92V1716.36M640.465 1544.92H799.172M640.465 1544.92V1716.36M799.172 1544.92H957.879M799.172 1544.92V1716.36M957.879 1544.92H1116.59M957.879 1544.92V1716.36M1116.59 1544.92H1275.29M1116.59 1544.92V1716.36M1275.29 1544.92H1434M1275.29 1544.92V1716.36M1434 1544.92H1592.7M1434 1544.92V1716.36M1592.7 1544.92H1751.41M1592.7 1544.92V1716.36M1751.41 1544.92H1910.12M1751.41 1544.92V1716.36M1910.12 1544.92H2068.83M1910.12 1544.92V1716.36M2068.83 1544.92V1716.36M-153.069 1716.36H-311.776M-153.069 1716.36H5.63772M-153.069 1716.36V1887.8M-311.776 1716.36V1887.8M5.63772 1716.36H164.345M5.63772 1716.36V1887.8M164.345 1716.36H323.051M164.345 1716.36V1887.8M323.051 1716.36H481.758M323.051 1716.36V1887.8M481.758 1716.36H640.465M481.758 1716.36V1887.8M640.465 1716.36H799.172M640.465 1716.36V1887.8M799.172 1716.36H957.879M799.172 1716.36V1887.8M957.879 1716.36H1116.59M957.879 1716.36V1887.8M1116.59 1716.36H1275.29M1116.59 1716.36V1887.8M1275.29 1716.36H1434M1275.29 1716.36V1887.8M1434 1716.36H1592.7M1434 1716.36V1887.8M1592.7 1716.36H1751.41M1592.7 1716.36V1887.8M1751.41 1716.36H1910.12M1751.41 1716.36V1887.8M1910.12 1716.36H2068.83M1910.12 1716.36V1887.8M2068.83 1716.36V1887.8M-153.069 1887.8H-311.776M-153.069 1887.8H5.63772M-153.069 1887.8V2059.24M-311.776 1887.8V2059.24M5.63772 1887.8H164.345M5.63772 1887.8V2059.24M164.345 1887.8H323.051M164.345 1887.8V2059.24M323.051 1887.8H481.758M323.051 1887.8V2059.24M481.758 1887.8H640.465M481.758 1887.8V2059.24M640.465 1887.8H799.172M640.465 1887.8V2059.24M799.172 1887.8H957.879M799.172 1887.8V2059.24M957.879 1887.8H1116.59M957.879 1887.8V2059.24M1116.59 1887.8H1275.29M1116.59 1887.8V2059.24M1275.29 1887.8H1434M1275.29 1887.8V2059.24M1434 1887.8H1592.7M1434 1887.8V2059.24M1592.7 1887.8H1751.41M1592.7 1887.8V2059.24M1751.41 1887.8H1910.12M1751.41 1887.8V2059.24M1910.12 1887.8H2068.83M1910.12 1887.8V2059.24M2068.83 1887.8V2059.24M-153.069 2059.24H-311.776M-153.069 2059.24H5.63772M-153.069 2059.24V2230.68M-311.776 2059.24V2230.68M5.63772 2059.24H164.345M5.63772 2059.24V2230.68M164.345 2059.24H323.051M164.345 2059.24V2230.68M323.051 2059.24H481.758M323.051 2059.24V2230.68M481.758 2059.24H640.465M481.758 2059.24V2230.68M640.465 2059.24H799.172M640.465 2059.24V2230.68M799.172 2059.24H957.879M799.172 2059.24V2230.68M957.879 2059.24H1116.59M957.879 2059.24V2230.68M1116.59 2059.24H1275.29M1116.59 2059.24V2230.68M1275.29 2059.24H1434M1275.29 2059.24V2230.68M1434 2059.24H1592.7M1434 2059.24V2230.68M1592.7 2059.24H1751.41M1592.7 2059.24V2230.68M1751.41 2059.24H1910.12M1751.41 2059.24V2230.68M1910.12 2059.24H2068.83M1910.12 2059.24V2230.68M2068.83 2059.24V2230.68M-153.069 2230.68H-311.776M-153.069 2230.68H5.63772M-153.069 2230.68V2402.12M-311.776 2230.68V2402.12M5.63772 2230.68H164.345M5.63772 2230.68V2402.12M164.345 2230.68H323.051M164.345 2230.68V2402.12M323.051 2230.68H481.758M323.051 2230.68V2402.12M481.758 2230.68H640.465M481.758 2230.68V2402.12M640.465 2230.68H799.172M640.465 2230.68V2402.12M799.172 2230.68H957.879M799.172 2230.68V2402.12M957.879 2230.68H1116.59M957.879 2230.68V2402.12M1116.59 2230.68H1275.29M1116.59 2230.68V2402.12M1275.29 2230.68H1434M1275.29 2230.68V2402.12M1434 2230.68H1592.7M1434 2230.68V2402.12M1592.7 2230.68H1751.41M1592.7 2230.68V2402.12M1751.41 2230.68H1910.12M1751.41 2230.68V2402.12M1910.12 2230.68H2068.83M1910.12 2230.68V2402.12M2068.83 2230.68V2402.12M-153.069 2402.12H-311.776M-153.069 2402.12H5.63772M-153.069 2402.12V2573.56M-311.776 2402.12V2573.56M5.63772 2402.12H164.345M5.63772 2402.12V2573.56M164.345 2402.12H323.051M164.345 2402.12V2573.56M323.051 2402.12H481.758M323.051 2402.12V2573.56M481.758 2402.12H640.465M481.758 2402.12V2573.56M640.465 2402.12H799.172M640.465 2402.12V2573.56M799.172 2402.12H957.879M799.172 2402.12V2573.56M957.879 2402.12H1116.59M957.879 2402.12V2573.56M1116.59 2402.12H1275.29M1116.59 2402.12V2573.56M1275.29 2402.12H1434M1275.29 2402.12V2573.56M1434 2402.12H1592.7M1434 2402.12V2573.56M1592.7 2402.12H1751.41M1592.7 2402.12V2573.56M1751.41 2402.12H1910.12M1751.41 2402.12V2573.56M1910.12 2402.12H2068.83M1910.12 2402.12V2573.56M2068.83 2402.12V2573.56M-153.069 2573.56H-311.776M-153.069 2573.56H5.63772M-153.069 2573.56V2745M-311.776 2573.56V2745M5.63772 2573.56H164.345M5.63772 2573.56V2745M164.345 2573.56H323.051M164.345 2573.56V2745M323.051 2573.56H481.758M323.051 2573.56V2745M481.758 2573.56H640.465M481.758 2573.56V2745M640.465 2573.56H799.172M640.465 2573.56V2745M799.172 2573.56H957.879M799.172 2573.56V2745M957.879 2573.56H1116.59M957.879 2573.56V2745M1116.59 2573.56H1275.29M1116.59 2573.56V2745M1275.29 2573.56H1434M1275.29 2573.56V2745M1434 2573.56H1592.7M1434 2573.56V2745M1592.7 2573.56H1751.41M1592.7 2573.56V2745M1751.41 2573.56H1910.12M1751.41 2573.56V2745M1910.12 2573.56H2068.83M1910.12 2573.56V2745M2068.83 2573.56V2745M-153.069 2745H-311.776M-153.069 2745H5.63772M-153.069 2745V2916.44M-311.776 2745V2916.44M5.63772 2745H164.345M5.63772 2745V2916.44M164.345 2745H323.051M164.345 2745V2916.44M323.051 2745H481.758M323.051 2745V2916.44M481.758 2745H640.465M481.758 2745V2916.44M640.465 2745H799.172M640.465 2745V2916.44M799.172 2745H957.879M799.172 2745V2916.44M957.879 2745H1116.59M957.879 2745V2916.44M1116.59 2745H1275.29M1116.59 2745V2916.44M1275.29 2745H1434M1275.29 2745V2916.44M1434 2745H1592.7M1434 2745V2916.44M1592.7 2745H1751.41M1592.7 2745V2916.44M1751.41 2745H1910.12M1751.41 2745V2916.44M1910.12 2745H2068.83M1910.12 2745V2916.44M2068.83 2745V2916.44M-153.069 2916.44H-311.776M-153.069 2916.44H5.63772M-153.069 2916.44V3087.89M-311.776 2916.44V3087.89M5.63772 2916.44H164.345M5.63772 2916.44V3087.89M164.345 2916.44H323.051M164.345 2916.44V3087.89M323.051 2916.44H481.758M323.051 2916.44V3087.89M481.758 2916.44H640.465M481.758 2916.44V3087.89M640.465 2916.44H799.172M640.465 2916.44V3087.89M799.172 2916.44H957.879M799.172 2916.44V3087.89M957.879 2916.44H1116.59M957.879 2916.44V3087.89M1116.59 2916.44H1275.29M1116.59 2916.44V3087.89M1275.29 2916.44H1434M1275.29 2916.44V3087.89M1434 2916.44H1592.7M1434 2916.44V3087.89M1592.7 2916.44H1751.41M1592.7 2916.44V3087.89M1751.41 2916.44H1910.12M1751.41 2916.44V3087.89M1910.12 2916.44H2068.83M1910.12 2916.44V3087.89M2068.83 2916.44V3087.89M-153.069 3087.89H-311.776M-153.069 3087.89H5.63772M-153.069 3087.89V3259.32M-311.776 3087.89V3259.32M5.63772 3087.89H164.345M5.63772 3087.89V3259.32M164.345 3087.89H323.051M164.345 3087.89V3259.32M323.051 3087.89H481.758M323.051 3087.89V3259.32M481.758 3087.89H640.465M481.758 3087.89V3259.32M640.465 3087.89H799.172M640.465 3087.89V3259.32M799.172 3087.89H957.879M799.172 3087.89V3259.32M957.879 3087.89H1116.59M957.879 3087.89V3259.32M1116.59 3087.89H1275.29M1116.59 3087.89V3259.32M1275.29 3087.89H1434M1275.29 3087.89V3259.32M1434 3087.89H1592.7M1434 3087.89V3259.32M1592.7 3087.89H1751.41M1592.7 3087.89V3259.32M1751.41 3087.89H1910.12M1751.41 3087.89V3259.32M1910.12 3087.89H2068.83M1910.12 3087.89V3259.32M2068.83 3087.89V3259.32M-153.069 3259.32H-311.776M-153.069 3259.32H5.63772M-153.069 3259.32V3430.75M-311.776 3259.32V3430.75H-153.069M5.63772 3259.32H164.345M5.63772 3259.32V3430.75M164.345 3259.32H323.051M164.345 3259.32V3430.75M323.051 3259.32H481.758M323.051 3259.32V3430.75M481.758 3259.32H640.465M481.758 3259.32V3430.75M640.465 3259.32H799.172M640.465 3259.32V3430.75M799.172 3259.32H957.879M799.172 3259.32V3430.75M957.879 3259.32H1116.59M957.879 3259.32V3430.75M1116.59 3259.32H1275.29M1116.59 3259.32V3430.75M1275.29 3259.32H1434M1275.29 3259.32V3430.75M1434 3259.32H1592.7M1434 3259.32V3430.75M1592.7 3259.32H1751.41M1592.7 3259.32V3430.75M1751.41 3259.32H1910.12M1751.41 3259.32V3430.75M1910.12 3259.32H2068.83M1910.12 3259.32V3430.75M2068.83 3259.32V3430.75H1910.12M-153.069 3430.75H5.63772M5.63772 3430.75H164.345M164.345 3430.75H323.051M323.051 3430.75H481.758M481.758 3430.75H640.465M640.465 3430.75H799.172M799.172 3430.75H957.879M957.879 3430.75H1116.59M1116.59 3430.75H1275.29M1275.29 3430.75H1434M1434 3430.75H1592.7M1592.7 3430.75H1751.41M1751.41 3430.75H1910.12" stroke="white" stroke-opacity="0.15"/>
<path d="M-153.293 2698H-312V2869.44M-153.293 2698V2869.44M-153.293 2698H5.41354M-312 2869.44H-153.293M-312 2869.44V3040.88M-153.293 2869.44H5.41354M-153.293 2869.44V3040.88M5.41354 2698V2869.44M5.41354 2698H164.12M-312 3040.88H-153.293M-312 3040.88V3212.32M5.41354 2869.44H164.12M5.41354 2869.44V3040.88M-153.293 3040.88H5.41354M-153.293 3040.88V3212.32M164.12 2698V2869.44M164.12 2698H322.827M164.12 2869.44H322.827M164.12 2869.44V3040.88M5.41354 3040.88H164.12M5.41354 3040.88V3212.32M-153.293 3212.32H-312M-153.293 3212.32H5.41354M-153.293 3212.32V3383.76M-312 3212.32V3383.76M322.827 2698V2869.44M322.827 2698H481.534M322.827 2869.44H481.534M322.827 2869.44V3040.88M164.12 3040.88H322.827M164.12 3040.88V3212.32M5.41354 3212.32H164.12M5.41354 3212.32V3383.76M481.534 2698V2869.44M481.534 2698H640.241M481.534 2869.44H640.241M481.534 2869.44V3040.88M322.827 3040.88H481.534M322.827 3040.88V3212.32M164.12 3212.32H322.827M164.12 3212.32V3383.76M640.241 2698V2869.44M640.241 2698H798.948M640.241 2869.44H798.948M640.241 2869.44V3040.88M481.534 3040.88H640.241M481.534 3040.88V3212.32M322.827 3212.32H481.534M322.827 3212.32V3383.76M798.948 2698V2869.44M798.948 2698H957.655M798.948 2869.44H957.655M798.948 2869.44V3040.88M640.241 3040.88H798.948M640.241 3040.88V3212.32M481.534 3212.32H640.241M481.534 3212.32V3383.76M957.655 2698V2869.44M957.655 2698H1116.36M957.655 2869.44H1116.36M957.655 2869.44V3040.88M798.948 3040.88H957.655M798.948 3040.88V3212.32M640.241 3212.32H798.948M640.241 3212.32V3383.76M1116.36 2698V2869.44M1116.36 2698H1275.07M1116.36 2869.44H1275.07M1116.36 2869.44V3040.88M957.655 3040.88H1116.36M957.655 3040.88V3212.32M798.948 3212.32H957.655M798.948 3212.32V3383.76M1275.07 2698V2869.44M1275.07 2698H1433.78M1275.07 2869.44H1433.78M1275.07 2869.44V3040.88M1116.36 3040.88H1275.07M1116.36 3040.88V3212.32M957.655 3212.32H1116.36M957.655 3212.32V3383.76M1433.78 2698V2869.44M1433.78 2698H1592.48M1433.78 2869.44H1592.48M1433.78 2869.44V3040.88M1275.07 3040.88H1433.78M1275.07 3040.88V3212.32M1116.36 3212.32H1275.07M1116.36 3212.32V3383.76M1592.48 2698V2869.44M1592.48 2698H1751.19M1592.48 2869.44H1751.19M1592.48 2869.44V3040.88M1433.78 3040.88H1592.48M1433.78 3040.88V3212.32M1275.07 3212.32H1433.78M1275.07 3212.32V3383.76M1751.19 2698V2869.44M1751.19 2698H1909.9M1751.19 2869.44H1909.9M1751.19 2869.44V3040.88M1592.48 3040.88H1751.19M1592.48 3040.88V3212.32M1433.78 3212.32H1592.48M1433.78 3212.32V3383.76M1909.9 2698V2869.44M1909.9 2698H2068.6V2869.44M1909.9 2869.44H2068.6M1909.9 2869.44V3040.88M1751.19 3040.88H1909.9M1751.19 3040.88V3212.32M1592.48 3212.32H1751.19M1592.48 3212.32V3383.76M2068.6 2869.44V3040.88M1909.9 3040.88H2068.6M1909.9 3040.88V3212.32M1751.19 3212.32H1909.9M1751.19 3212.32V3383.76M2068.6 3040.88V3212.32M1909.9 3212.32H2068.6M1909.9 3212.32V3383.76M2068.6 3212.32V3383.76M-153.293 3383.76H-312M-153.293 3383.76H5.41354M-153.293 3383.76V3555.2M-312 3383.76V3555.2M5.41354 3383.76H164.12M5.41354 3383.76V3555.2M164.12 3383.76H322.827M164.12 3383.76V3555.2M322.827 3383.76H481.534M322.827 3383.76V3555.2M481.534 3383.76H640.241M481.534 3383.76V3555.2M640.241 3383.76H798.948M640.241 3383.76V3555.2M798.948 3383.76H957.655M798.948 3383.76V3555.2M957.655 3383.76H1116.36M957.655 3383.76V3555.2M1116.36 3383.76H1275.07M1116.36 3383.76V3555.2M1275.07 3383.76H1433.78M1275.07 3383.76V3555.2M1433.78 3383.76H1592.48M1433.78 3383.76V3555.2M1592.48 3383.76H1751.19M1592.48 3383.76V3555.2M1751.19 3383.76H1909.9M1751.19 3383.76V3555.2M1909.9 3383.76H2068.6M1909.9 3383.76V3555.2M2068.6 3383.76V3555.2M-153.293 3555.2H-312M-153.293 3555.2H5.41354M-153.293 3555.2V3726.64M-312 3555.2V3726.64M5.41354 3555.2H164.12M5.41354 3555.2V3726.64M164.12 3555.2H322.827M164.12 3555.2V3726.64M322.827 3555.2H481.534M322.827 3555.2V3726.64M481.534 3555.2H640.241M481.534 3555.2V3726.64M640.241 3555.2H798.948M640.241 3555.2V3726.64M798.948 3555.2H957.655M798.948 3555.2V3726.64M957.655 3555.2H1116.36M957.655 3555.2V3726.64M1116.36 3555.2H1275.07M1116.36 3555.2V3726.64M1275.07 3555.2H1433.78M1275.07 3555.2V3726.64M1433.78 3555.2H1592.48M1433.78 3555.2V3726.64M1592.48 3555.2H1751.19M1592.48 3555.2V3726.64M1751.19 3555.2H1909.9M1751.19 3555.2V3726.64M1909.9 3555.2H2068.6M1909.9 3555.2V3726.64M2068.6 3555.2V3726.64M-153.293 3726.64H-312M-153.293 3726.64H5.41354M-153.293 3726.64V3898.08M-312 3726.64V3898.08M5.41354 3726.64H164.12M5.41354 3726.64V3898.08M164.12 3726.64H322.827M164.12 3726.64V3898.08M322.827 3726.64H481.534M322.827 3726.64V3898.08M481.534 3726.64H640.241M481.534 3726.64V3898.08M640.241 3726.64H798.948M640.241 3726.64V3898.08M798.948 3726.64H957.655M798.948 3726.64V3898.08M957.655 3726.64H1116.36M957.655 3726.64V3898.08M1116.36 3726.64H1275.07M1116.36 3726.64V3898.08M1275.07 3726.64H1433.78M1275.07 3726.64V3898.08M1433.78 3726.64H1592.48M1433.78 3726.64V3898.08M1592.48 3726.64H1751.19M1592.48 3726.64V3898.08M1751.19 3726.64H1909.9M1751.19 3726.64V3898.08M1909.9 3726.64H2068.6M1909.9 3726.64V3898.08M2068.6 3726.64V3898.08M-153.293 3898.08H-312M-153.293 3898.08H5.41354M-153.293 3898.08V4069.52M-312 3898.08V4069.52M5.41354 3898.08H164.12M5.41354 3898.08V4069.52M164.12 3898.08H322.827M164.12 3898.08V4069.52M322.827 3898.08H481.534M322.827 3898.08V4069.52M481.534 3898.08H640.241M481.534 3898.08V4069.52M640.241 3898.08H798.948M640.241 3898.08V4069.52M798.948 3898.08H957.655M798.948 3898.08V4069.52M957.655 3898.08H1116.36M957.655 3898.08V4069.52M1116.36 3898.08H1275.07M1116.36 3898.08V4069.52M1275.07 3898.08H1433.78M1275.07 3898.08V4069.52M1433.78 3898.08H1592.48M1433.78 3898.08V4069.52M1592.48 3898.08H1751.19M1592.48 3898.08V4069.52M1751.19 3898.08H1909.9M1751.19 3898.08V4069.52M1909.9 3898.08H2068.6M1909.9 3898.08V4069.52M2068.6 3898.08V4069.52M-153.293 4069.52H-312M-153.293 4069.52H5.41354M-153.293 4069.52V4240.96M-312 4069.52V4240.96M5.41354 4069.52H164.12M5.41354 4069.52V4240.96M164.12 4069.52H322.827M164.12 4069.52V4240.96M322.827 4069.52H481.534M322.827 4069.52V4240.96M481.534 4069.52H640.241M481.534 4069.52V4240.96M640.241 4069.52H798.948M640.241 4069.52V4240.96M798.948 4069.52H957.655M798.948 4069.52V4240.96M957.655 4069.52H1116.36M957.655 4069.52V4240.96M1116.36 4069.52H1275.07M1116.36 4069.52V4240.96M1275.07 4069.52H1433.78M1275.07 4069.52V4240.96M1433.78 4069.52H1592.48M1433.78 4069.52V4240.96M1592.48 4069.52H1751.19M1592.48 4069.52V4240.96M1751.19 4069.52H1909.9M1751.19 4069.52V4240.96M1909.9 4069.52H2068.6M1909.9 4069.52V4240.96M2068.6 4069.52V4240.96M-153.293 4240.96H-312M-153.293 4240.96H5.41354M-153.293 4240.96V4412.4M-312 4240.96V4412.4M5.41354 4240.96H164.12M5.41354 4240.96V4412.4M164.12 4240.96H322.827M164.12 4240.96V4412.4M322.827 4240.96H481.534M322.827 4240.96V4412.4M481.534 4240.96H640.241M481.534 4240.96V4412.4M640.241 4240.96H798.948M640.241 4240.96V4412.4M798.948 4240.96H957.655M798.948 4240.96V4412.4M957.655 4240.96H1116.36M957.655 4240.96V4412.4M1116.36 4240.96H1275.07M1116.36 4240.96V4412.4M1275.07 4240.96H1433.78M1275.07 4240.96V4412.4M1433.78 4240.96H1592.48M1433.78 4240.96V4412.4M1592.48 4240.96H1751.19M1592.48 4240.96V4412.4M1751.19 4240.96H1909.9M1751.19 4240.96V4412.4M1909.9 4240.96H2068.6M1909.9 4240.96V4412.4M2068.6 4240.96V4412.4M-153.293 4412.4H-312M-153.293 4412.4H5.41354M-153.293 4412.4V4583.84M-312 4412.4V4583.84M5.41354 4412.4H164.12M5.41354 4412.4V4583.84M164.12 4412.4H322.827M164.12 4412.4V4583.84M322.827 4412.4H481.534M322.827 4412.4V4583.84M481.534 4412.4H640.241M481.534 4412.4V4583.84M640.241 4412.4H798.948M640.241 4412.4V4583.84M798.948 4412.4H957.655M798.948 4412.4V4583.84M957.655 4412.4H1116.36M957.655 4412.4V4583.84M1116.36 4412.4H1275.07M1116.36 4412.4V4583.84M1275.07 4412.4H1433.78M1275.07 4412.4V4583.84M1433.78 4412.4H1592.48M1433.78 4412.4V4583.84M1592.48 4412.4H1751.19M1592.48 4412.4V4583.84M1751.19 4412.4H1909.9M1751.19 4412.4V4583.84M1909.9 4412.4H2068.6M1909.9 4412.4V4583.84M2068.6 4412.4V4583.84M-153.293 4583.84H-312M-153.293 4583.84H5.41354M-153.293 4583.84V4755.28M-312 4583.84V4755.28M5.41354 4583.84H164.12M5.41354 4583.84V4755.28M164.12 4583.84H322.827M164.12 4583.84V4755.28M322.827 4583.84H481.534M322.827 4583.84V4755.28M481.534 4583.84H640.241M481.534 4583.84V4755.28M640.241 4583.84H798.948M640.241 4583.84V4755.28M798.948 4583.84H957.655M798.948 4583.84V4755.28M957.655 4583.84H1116.36M957.655 4583.84V4755.28M1116.36 4583.84H1275.07M1116.36 4583.84V4755.28M1275.07 4583.84H1433.78M1275.07 4583.84V4755.28M1433.78 4583.84H1592.48M1433.78 4583.84V4755.28M1592.48 4583.84H1751.19M1592.48 4583.84V4755.28M1751.19 4583.84H1909.9M1751.19 4583.84V4755.28M1909.9 4583.84H2068.6M1909.9 4583.84V4755.28M2068.6 4583.84V4755.28M-153.293 4755.28H-312M-153.293 4755.28H5.41354M-153.293 4755.28V4926.73M-312 4755.28V4926.73M5.41354 4755.28H164.12M5.41354 4755.28V4926.73M164.12 4755.28H322.827M164.12 4755.28V4926.73M322.827 4755.28H481.534M322.827 4755.28V4926.73M481.534 4755.28H640.241M481.534 4755.28V4926.73M640.241 4755.28H798.948M640.241 4755.28V4926.73M798.948 4755.28H957.655M798.948 4755.28V4926.73M957.655 4755.28H1116.36M957.655 4755.28V4926.73M1116.36 4755.28H1275.07M1116.36 4755.28V4926.73M1275.07 4755.28H1433.78M1275.07 4755.28V4926.73M1433.78 4755.28H1592.48M1433.78 4755.28V4926.73M1592.48 4755.28H1751.19M1592.48 4755.28V4926.73M1751.19 4755.28H1909.9M1751.19 4755.28V4926.73M1909.9 4755.28H2068.6M1909.9 4755.28V4926.73M2068.6 4755.28V4926.73M-153.293 4926.73H-312M-153.293 4926.73H5.41354M-153.293 4926.73V5098.16M-312 4926.73V5098.16M5.41354 4926.73H164.12M5.41354 4926.73V5098.16M164.12 4926.73H322.827M164.12 4926.73V5098.16M322.827 4926.73H481.534M322.827 4926.73V5098.16M481.534 4926.73H640.241M481.534 4926.73V5098.16M640.241 4926.73H798.948M640.241 4926.73V5098.16M798.948 4926.73H957.655M798.948 4926.73V5098.16M957.655 4926.73H1116.36M957.655 4926.73V5098.16M1116.36 4926.73H1275.07M1116.36 4926.73V5098.16M1275.07 4926.73H1433.78M1275.07 4926.73V5098.16M1433.78 4926.73H1592.48M1433.78 4926.73V5098.16M1592.48 4926.73H1751.19M1592.48 4926.73V5098.16M1751.19 4926.73H1909.9M1751.19 4926.73V5098.16M1909.9 4926.73H2068.6M1909.9 4926.73V5098.16M2068.6 4926.73V5098.16M-153.293 5098.16H-312M-153.293 5098.16H5.41354M-153.293 5098.16V5269.59M-312 5098.16V5269.59H-153.293M5.41354 5098.16H164.12M5.41354 5098.16V5269.59M164.12 5098.16H322.827M164.12 5098.16V5269.59M322.827 5098.16H481.534M322.827 5098.16V5269.59M481.534 5098.16H640.241M481.534 5098.16V5269.59M640.241 5098.16H798.948M640.241 5098.16V5269.59M798.948 5098.16H957.655M798.948 5098.16V5269.59M957.655 5098.16H1116.36M957.655 5098.16V5269.59M1116.36 5098.16H1275.07M1116.36 5098.16V5269.59M1275.07 5098.16H1433.78M1275.07 5098.16V5269.59M1433.78 5098.16H1592.48M1433.78 5098.16V5269.59M1592.48 5098.16H1751.19M1592.48 5098.16V5269.59M1751.19 5098.16H1909.9M1751.19 5098.16V5269.59M1909.9 5098.16H2068.6M1909.9 5098.16V5269.59M2068.6 5098.16V5269.59H1909.9M-153.293 5269.59H5.41354M5.41354 5269.59H164.12M164.12 5269.59H322.827M322.827 5269.59H481.534M481.534 5269.59H640.241M640.241 5269.59H798.948M798.948 5269.59H957.655M957.655 5269.59H1116.36M1116.36 5269.59H1275.07M1275.07 5269.59H1433.78M1433.78 5269.59H1592.48M1592.48 5269.59H1751.19M1751.19 5269.59H1909.9" stroke="white" stroke-opacity="0.15"/>
</g>
<g clip-path="url(#clip2_44_649)">
<path d="M1116.71 3382H958V3553.44H1116.71V3382Z" fill="url(#paint12_radial_44_649)" fill-opacity="0.06"/>
<path d="M957.879 3039.92H799.172V3211.36H957.879V3039.92Z" fill="url(#paint13_radial_44_649)" fill-opacity="0.06"/>
<path d="M481.707 2869H323V3040.44H481.707V2869Z" fill="url(#paint14_radial_44_649)" fill-opacity="0.06"/>
<path d="M1434.71 3211H1276V3382.44H1434.71V3211Z" fill="url(#paint15_radial_44_649)" fill-opacity="0.06"/>
<path d="M165.707 3725H7V3896.44H165.707V3725Z" fill="url(#paint16_radial_44_649)" fill-opacity="0.06"/>
<path d="M481.707 3211H323V3382.44H481.707V3211Z" fill="url(#paint17_radial_44_649)" fill-opacity="0.06"/>
<path d="M-153.069 2354.16H-311.776V2525.6M-153.069 2354.16V2525.6M-153.069 2354.16H5.63772M-311.776 2525.6H-153.069M-311.776 2525.6V2697.04M-153.069 2525.6H5.63772M-153.069 2525.6V2697.04M5.63772 2354.16V2525.6M5.63772 2354.16H164.345M-311.776 2697.04H-153.069M-311.776 2697.04V2868.48M5.63772 2525.6H164.345M5.63772 2525.6V2697.04M-153.069 2697.04H5.63772M-153.069 2697.04V2868.48M164.345 2354.16V2525.6M164.345 2354.16H323.051M164.345 2525.6H323.051M164.345 2525.6V2697.04M5.63772 2697.04H164.345M5.63772 2697.04V2868.48M-153.069 2868.48H-311.776M-153.069 2868.48H5.63772M-153.069 2868.48V3039.92M-311.776 2868.48V3039.92M323.051 2354.16V2525.6M323.051 2354.16H481.758M323.051 2525.6H481.758M323.051 2525.6V2697.04M164.345 2697.04H323.051M164.345 2697.04V2868.48M5.63772 2868.48H164.345M5.63772 2868.48V3039.92M481.758 2354.16V2525.6M481.758 2354.16H640.465M481.758 2525.6H640.465M481.758 2525.6V2697.04M323.051 2697.04H481.758M323.051 2697.04V2868.48M164.345 2868.48H323.051M164.345 2868.48V3039.92M640.465 2354.16V2525.6M640.465 2354.16H799.172M640.465 2525.6H799.172M640.465 2525.6V2697.04M481.758 2697.04H640.465M481.758 2697.04V2868.48M323.051 2868.48H481.758M323.051 2868.48V3039.92M799.172 2354.16V2525.6M799.172 2354.16H957.879M799.172 2525.6H957.879M799.172 2525.6V2697.04M640.465 2697.04H799.172M640.465 2697.04V2868.48M481.758 2868.48H640.465M481.758 2868.48V3039.92M957.879 2354.16V2525.6M957.879 2354.16H1116.59M957.879 2525.6H1116.59M957.879 2525.6V2697.04M799.172 2697.04H957.879M799.172 2697.04V2868.48M640.465 2868.48H799.172M640.465 2868.48V3039.92M1116.59 2354.16V2525.6M1116.59 2354.16H1275.29M1116.59 2525.6H1275.29M1116.59 2525.6V2697.04M957.879 2697.04H1116.59M957.879 2697.04V2868.48M799.172 2868.48H957.879M799.172 2868.48V3039.92M1275.29 2354.16V2525.6M1275.29 2354.16H1434M1275.29 2525.6H1434M1275.29 2525.6V2697.04M1116.59 2697.04H1275.29M1116.59 2697.04V2868.48M957.879 2868.48H1116.59M957.879 2868.48V3039.92M1434 2354.16V2525.6M1434 2354.16H1592.7M1434 2525.6H1592.7M1434 2525.6V2697.04M1275.29 2697.04H1434M1275.29 2697.04V2868.48M1116.59 2868.48H1275.29M1116.59 2868.48V3039.92M1592.7 2354.16V2525.6M1592.7 2354.16H1751.41M1592.7 2525.6H1751.41M1592.7 2525.6V2697.04M1434 2697.04H1592.7M1434 2697.04V2868.48M1275.29 2868.48H1434M1275.29 2868.48V3039.92M1751.41 2354.16V2525.6M1751.41 2354.16H1910.12M1751.41 2525.6H1910.12M1751.41 2525.6V2697.04M1592.7 2697.04H1751.41M1592.7 2697.04V2868.48M1434 2868.48H1592.7M1434 2868.48V3039.92M1910.12 2354.16V2525.6M1910.12 2354.16H2068.83V2525.6M1910.12 2525.6H2068.83M1910.12 2525.6V2697.04M1751.41 2697.04H1910.12M1751.41 2697.04V2868.48M1592.7 2868.48H1751.41M1592.7 2868.48V3039.92M2068.83 2525.6V2697.04M1910.12 2697.04H2068.83M1910.12 2697.04V2868.48M1751.41 2868.48H1910.12M1751.41 2868.48V3039.92M2068.83 2697.04V2868.48M1910.12 2868.48H2068.83M1910.12 2868.48V3039.92M2068.83 2868.48V3039.92M-153.069 3039.92H-311.776M-153.069 3039.92H5.63772M-153.069 3039.92V3211.36M-311.776 3039.92V3211.36M5.63772 3039.92H164.345M5.63772 3039.92V3211.36M164.345 3039.92H323.051M164.345 3039.92V3211.36M323.051 3039.92H481.758M323.051 3039.92V3211.36M481.758 3039.92H640.465M481.758 3039.92V3211.36M640.465 3039.92H799.172M640.465 3039.92V3211.36M799.172 3039.92H957.879M799.172 3039.92V3211.36M957.879 3039.92H1116.59M957.879 3039.92V3211.36M1116.59 3039.92H1275.29M1116.59 3039.92V3211.36M1275.29 3039.92H1434M1275.29 3039.92V3211.36M1434 3039.92H1592.7M1434 3039.92V3211.36M1592.7 3039.92H1751.41M1592.7 3039.92V3211.36M1751.41 3039.92H1910.12M1751.41 3039.92V3211.36M1910.12 3039.92H2068.83M1910.12 3039.92V3211.36M2068.83 3039.92V3211.36M-153.069 3211.36H-311.776M-153.069 3211.36H5.63772M-153.069 3211.36V3382.8M-311.776 3211.36V3382.8M5.63772 3211.36H164.345M5.63772 3211.36V3382.8M164.345 3211.36H323.051M164.345 3211.36V3382.8M323.051 3211.36H481.758M323.051 3211.36V3382.8M481.758 3211.36H640.465M481.758 3211.36V3382.8M640.465 3211.36H799.172M640.465 3211.36V3382.8M799.172 3211.36H957.879M799.172 3211.36V3382.8M957.879 3211.36H1116.59M957.879 3211.36V3382.8M1116.59 3211.36H1275.29M1116.59 3211.36V3382.8M1275.29 3211.36H1434M1275.29 3211.36V3382.8M1434 3211.36H1592.7M1434 3211.36V3382.8M1592.7 3211.36H1751.41M1592.7 3211.36V3382.8M1751.41 3211.36H1910.12M1751.41 3211.36V3382.8M1910.12 3211.36H2068.83M1910.12 3211.36V3382.8M2068.83 3211.36V3382.8M-153.069 3382.8H-311.776M-153.069 3382.8H5.63772M-153.069 3382.8V3554.24M-311.776 3382.8V3554.24M5.63772 3382.8H164.345M5.63772 3382.8V3554.24M164.345 3382.8H323.051M164.345 3382.8V3554.24M323.051 3382.8H481.758M323.051 3382.8V3554.24M481.758 3382.8H640.465M481.758 3382.8V3554.24M640.465 3382.8H799.172M640.465 3382.8V3554.24M799.172 3382.8H957.879M799.172 3382.8V3554.24M957.879 3382.8H1116.59M957.879 3382.8V3554.24M1116.59 3382.8H1275.29M1116.59 3382.8V3554.24M1275.29 3382.8H1434M1275.29 3382.8V3554.24M1434 3382.8H1592.7M1434 3382.8V3554.24M1592.7 3382.8H1751.41M1592.7 3382.8V3554.24M1751.41 3382.8H1910.12M1751.41 3382.8V3554.24M1910.12 3382.8H2068.83M1910.12 3382.8V3554.24M2068.83 3382.8V3554.24M-153.069 3554.24H-311.776M-153.069 3554.24H5.63772M-153.069 3554.24V3725.68M-311.776 3554.24V3725.68M5.63772 3554.24H164.345M5.63772 3554.24V3725.68M164.345 3554.24H323.051M164.345 3554.24V3725.68M323.051 3554.24H481.758M323.051 3554.24V3725.68M481.758 3554.24H640.465M481.758 3554.24V3725.68M640.465 3554.24H799.172M640.465 3554.24V3725.68M799.172 3554.24H957.879M799.172 3554.24V3725.68M957.879 3554.24H1116.59M957.879 3554.24V3725.68M1116.59 3554.24H1275.29M1116.59 3554.24V3725.68M1275.29 3554.24H1434M1275.29 3554.24V3725.68M1434 3554.24H1592.7M1434 3554.24V3725.68M1592.7 3554.24H1751.41M1592.7 3554.24V3725.68M1751.41 3554.24H1910.12M1751.41 3554.24V3725.68M1910.12 3554.24H2068.83M1910.12 3554.24V3725.68M2068.83 3554.24V3725.68M-153.069 3725.68H-311.776M-153.069 3725.68H5.63772M-153.069 3725.68V3897.12M-311.776 3725.68V3897.12M5.63772 3725.68H164.345M5.63772 3725.68V3897.12M164.345 3725.68H323.051M164.345 3725.68V3897.12M323.051 3725.68H481.758M323.051 3725.68V3897.12M481.758 3725.68H640.465M481.758 3725.68V3897.12M640.465 3725.68H799.172M640.465 3725.68V3897.12M799.172 3725.68H957.879M799.172 3725.68V3897.12M957.879 3725.68H1116.59M957.879 3725.68V3897.12M1116.59 3725.68H1275.29M1116.59 3725.68V3897.12M1275.29 3725.68H1434M1275.29 3725.68V3897.12M1434 3725.68H1592.7M1434 3725.68V3897.12M1592.7 3725.68H1751.41M1592.7 3725.68V3897.12M1751.41 3725.68H1910.12M1751.41 3725.68V3897.12M1910.12 3725.68H2068.83M1910.12 3725.68V3897.12M2068.83 3725.68V3897.12M-153.069 3897.12H-311.776M-153.069 3897.12H5.63772M-153.069 3897.12V4068.56M-311.776 3897.12V4068.56M5.63772 3897.12H164.345M5.63772 3897.12V4068.56M164.345 3897.12H323.051M164.345 3897.12V4068.56M323.051 3897.12H481.758M323.051 3897.12V4068.56M481.758 3897.12H640.465M481.758 3897.12V4068.56M640.465 3897.12H799.172M640.465 3897.12V4068.56M799.172 3897.12H957.879M799.172 3897.12V4068.56M957.879 3897.12H1116.59M957.879 3897.12V4068.56M1116.59 3897.12H1275.29M1116.59 3897.12V4068.56M1275.29 3897.12H1434M1275.29 3897.12V4068.56M1434 3897.12H1592.7M1434 3897.12V4068.56M1592.7 3897.12H1751.41M1592.7 3897.12V4068.56M1751.41 3897.12H1910.12M1751.41 3897.12V4068.56M1910.12 3897.12H2068.83M1910.12 3897.12V4068.56M2068.83 3897.12V4068.56M-153.069 4068.56H-311.776M-153.069 4068.56H5.63772M-153.069 4068.56V4240M-311.776 4068.56V4240M5.63772 4068.56H164.345M5.63772 4068.56V4240M164.345 4068.56H323.051M164.345 4068.56V4240M323.051 4068.56H481.758M323.051 4068.56V4240M481.758 4068.56H640.465M481.758 4068.56V4240M640.465 4068.56H799.172M640.465 4068.56V4240M799.172 4068.56H957.879M799.172 4068.56V4240M957.879 4068.56H1116.59M957.879 4068.56V4240M1116.59 4068.56H1275.29M1116.59 4068.56V4240M1275.29 4068.56H1434M1275.29 4068.56V4240M1434 4068.56H1592.7M1434 4068.56V4240M1592.7 4068.56H1751.41M1592.7 4068.56V4240M1751.41 4068.56H1910.12M1751.41 4068.56V4240M1910.12 4068.56H2068.83M1910.12 4068.56V4240M2068.83 4068.56V4240M-153.069 4240H-311.776M-153.069 4240H5.63772M-153.069 4240V4411.44M-311.776 4240V4411.44M5.63772 4240H164.345M5.63772 4240V4411.44M164.345 4240H323.051M164.345 4240V4411.44M323.051 4240H481.758M323.051 4240V4411.44M481.758 4240H640.465M481.758 4240V4411.44M640.465 4240H799.172M640.465 4240V4411.44M799.172 4240H957.879M799.172 4240V4411.44M957.879 4240H1116.59M957.879 4240V4411.44M1116.59 4240H1275.29M1116.59 4240V4411.44M1275.29 4240H1434M1275.29 4240V4411.44M1434 4240H1592.7M1434 4240V4411.44M1592.7 4240H1751.41M1592.7 4240V4411.44M1751.41 4240H1910.12M1751.41 4240V4411.44M1910.12 4240H2068.83M1910.12 4240V4411.44M2068.83 4240V4411.44M-153.069 4411.44H-311.776M-153.069 4411.44H5.63772M-153.069 4411.44V4582.89M-311.776 4411.44V4582.89M5.63772 4411.44H164.345M5.63772 4411.44V4582.89M164.345 4411.44H323.051M164.345 4411.44V4582.89M323.051 4411.44H481.758M323.051 4411.44V4582.89M481.758 4411.44H640.465M481.758 4411.44V4582.89M640.465 4411.44H799.172M640.465 4411.44V4582.89M799.172 4411.44H957.879M799.172 4411.44V4582.89M957.879 4411.44H1116.59M957.879 4411.44V4582.89M1116.59 4411.44H1275.29M1116.59 4411.44V4582.89M1275.29 4411.44H1434M1275.29 4411.44V4582.89M1434 4411.44H1592.7M1434 4411.44V4582.89M1592.7 4411.44H1751.41M1592.7 4411.44V4582.89M1751.41 4411.44H1910.12M1751.41 4411.44V4582.89M1910.12 4411.44H2068.83M1910.12 4411.44V4582.89M2068.83 4411.44V4582.89M-153.069 4582.89H-311.776M-153.069 4582.89H5.63772M-153.069 4582.89V4754.32M-311.776 4582.89V4754.32M5.63772 4582.89H164.345M5.63772 4582.89V4754.32M164.345 4582.89H323.051M164.345 4582.89V4754.32M323.051 4582.89H481.758M323.051 4582.89V4754.32M481.758 4582.89H640.465M481.758 4582.89V4754.32M640.465 4582.89H799.172M640.465 4582.89V4754.32M799.172 4582.89H957.879M799.172 4582.89V4754.32M957.879 4582.89H1116.59M957.879 4582.89V4754.32M1116.59 4582.89H1275.29M1116.59 4582.89V4754.32M1275.29 4582.89H1434M1275.29 4582.89V4754.32M1434 4582.89H1592.7M1434 4582.89V4754.32M1592.7 4582.89H1751.41M1592.7 4582.89V4754.32M1751.41 4582.89H1910.12M1751.41 4582.89V4754.32M1910.12 4582.89H2068.83M1910.12 4582.89V4754.32M2068.83 4582.89V4754.32M-153.069 4754.32H-311.776M-153.069 4754.32H5.63772M-153.069 4754.32V4925.75M-311.776 4754.32V4925.75H-153.069M5.63772 4754.32H164.345M5.63772 4754.32V4925.75M164.345 4754.32H323.051M164.345 4754.32V4925.75M323.051 4754.32H481.758M323.051 4754.32V4925.75M481.758 4754.32H640.465M481.758 4754.32V4925.75M640.465 4754.32H799.172M640.465 4754.32V4925.75M799.172 4754.32H957.879M799.172 4754.32V4925.75M957.879 4754.32H1116.59M957.879 4754.32V4925.75M1116.59 4754.32H1275.29M1116.59 4754.32V4925.75M1275.29 4754.32H1434M1275.29 4754.32V4925.75M1434 4754.32H1592.7M1434 4754.32V4925.75M1592.7 4754.32H1751.41M1592.7 4754.32V4925.75M1751.41 4754.32H1910.12M1751.41 4754.32V4925.75M1910.12 4754.32H2068.83M1910.12 4754.32V4925.75M2068.83 4754.32V4925.75H1910.12M-153.069 4925.75H5.63772M5.63772 4925.75H164.345M164.345 4925.75H323.051M323.051 4925.75H481.758M481.758 4925.75H640.465M640.465 4925.75H799.172M799.172 4925.75H957.879M957.879 4925.75H1116.59M1116.59 4925.75H1275.29M1275.29 4925.75H1434M1434 4925.75H1592.7M1592.7 4925.75H1751.41M1751.41 4925.75H1910.12" stroke="white" stroke-opacity="0.15"/>
</g>
<g clip-path="url(#clip3_44_649)">
<path d="M323.053 4411.24H164.346V4582.68H323.053V4411.24Z" fill="url(#paint18_radial_44_649)" fill-opacity="0.06"/>
<path d="M957.879 3896.92H799.172V4068.36H957.879V3896.92Z" fill="url(#paint19_radial_44_649)" fill-opacity="0.06"/>
<path d="M799.172 4925.56H640.465V5097H799.172V4925.56Z" fill="url(#paint20_radial_44_649)" fill-opacity="0.06"/>
<path d="M1434 4582.68H1275.29V4754.12H1434V4582.68Z" fill="url(#paint21_radial_44_649)" fill-opacity="0.06"/>
<path d="M957.881 4411.24H799.174V4582.68H957.881V4411.24Z" fill="url(#paint22_radial_44_649)" fill-opacity="0.06"/>
<path d="M-153.069 3211.16H-311.776V3382.6M-153.069 3211.16V3382.6M-153.069 3211.16H5.63772M-311.776 3382.6H-153.069M-311.776 3382.6V3554.04M-153.069 3382.6H5.63772M-153.069 3382.6V3554.04M5.63772 3211.16V3382.6M5.63772 3211.16H164.345M-311.776 3554.04H-153.069M-311.776 3554.04V3725.48M5.63772 3382.6H164.345M5.63772 3382.6V3554.04M-153.069 3554.04H5.63772M-153.069 3554.04V3725.48M164.345 3211.16V3382.6M164.345 3211.16H323.051M164.345 3382.6H323.051M164.345 3382.6V3554.04M5.63772 3554.04H164.345M5.63772 3554.04V3725.48M-153.069 3725.48H-311.776M-153.069 3725.48H5.63772M-153.069 3725.48V3896.92M-311.776 3725.48V3896.92M323.051 3211.16V3382.6M323.051 3211.16H481.758M323.051 3382.6H481.758M323.051 3382.6V3554.04M164.345 3554.04H323.051M164.345 3554.04V3725.48M5.63772 3725.48H164.345M5.63772 3725.48V3896.92M481.758 3211.16V3382.6M481.758 3211.16H640.465M481.758 3382.6H640.465M481.758 3382.6V3554.04M323.051 3554.04H481.758M323.051 3554.04V3725.48M164.345 3725.48H323.051M164.345 3725.48V3896.92M640.465 3211.16V3382.6M640.465 3211.16H799.172M640.465 3382.6H799.172M640.465 3382.6V3554.04M481.758 3554.04H640.465M481.758 3554.04V3725.48M323.051 3725.48H481.758M323.051 3725.48V3896.92M799.172 3211.16V3382.6M799.172 3211.16H957.879M799.172 3382.6H957.879M799.172 3382.6V3554.04M640.465 3554.04H799.172M640.465 3554.04V3725.48M481.758 3725.48H640.465M481.758 3725.48V3896.92M957.879 3211.16V3382.6M957.879 3211.16H1116.59M957.879 3382.6H1116.59M957.879 3382.6V3554.04M799.172 3554.04H957.879M799.172 3554.04V3725.48M640.465 3725.48H799.172M640.465 3725.48V3896.92M1116.59 3211.16V3382.6M1116.59 3211.16H1275.29M1116.59 3382.6H1275.29M1116.59 3382.6V3554.04M957.879 3554.04H1116.59M957.879 3554.04V3725.48M799.172 3725.48H957.879M799.172 3725.48V3896.92M1275.29 3211.16V3382.6M1275.29 3211.16H1434M1275.29 3382.6H1434M1275.29 3382.6V3554.04M1116.59 3554.04H1275.29M1116.59 3554.04V3725.48M957.879 3725.48H1116.59M957.879 3725.48V3896.92M1434 3211.16V3382.6M1434 3211.16H1592.7M1434 3382.6H1592.7M1434 3382.6V3554.04M1275.29 3554.04H1434M1275.29 3554.04V3725.48M1116.59 3725.48H1275.29M1116.59 3725.48V3896.92M1592.7 3211.16V3382.6M1592.7 3211.16H1751.41M1592.7 3382.6H1751.41M1592.7 3382.6V3554.04M1434 3554.04H1592.7M1434 3554.04V3725.48M1275.29 3725.48H1434M1275.29 3725.48V3896.92M1751.41 3211.16V3382.6M1751.41 3211.16H1910.12M1751.41 3382.6H1910.12M1751.41 3382.6V3554.04M1592.7 3554.04H1751.41M1592.7 3554.04V3725.48M1434 3725.48H1592.7M1434 3725.48V3896.92M1910.12 3211.16V3382.6M1910.12 3211.16H2068.83V3382.6M1910.12 3382.6H2068.83M1910.12 3382.6V3554.04M1751.41 3554.04H1910.12M1751.41 3554.04V3725.48M1592.7 3725.48H1751.41M1592.7 3725.48V3896.92M2068.83 3382.6V3554.04M1910.12 3554.04H2068.83M1910.12 3554.04V3725.48M1751.41 3725.48H1910.12M1751.41 3725.48V3896.92M2068.83 3554.04V3725.48M1910.12 3725.48H2068.83M1910.12 3725.48V3896.92M2068.83 3725.48V3896.92M-153.069 3896.92H-311.776M-153.069 3896.92H5.63772M-153.069 3896.92V4068.36M-311.776 3896.92V4068.36M5.63772 3896.92H164.345M5.63772 3896.92V4068.36M164.345 3896.92H323.051M164.345 3896.92V4068.36M323.051 3896.92H481.758M323.051 3896.92V4068.36M481.758 3896.92H640.465M481.758 3896.92V4068.36M640.465 3896.92H799.172M640.465 3896.92V4068.36M799.172 3896.92H957.879M799.172 3896.92V4068.36M957.879 3896.92H1116.59M957.879 3896.92V4068.36M1116.59 3896.92H1275.29M1116.59 3896.92V4068.36M1275.29 3896.92H1434M1275.29 3896.92V4068.36M1434 3896.92H1592.7M1434 3896.92V4068.36M1592.7 3896.92H1751.41M1592.7 3896.92V4068.36M1751.41 3896.92H1910.12M1751.41 3896.92V4068.36M1910.12 3896.92H2068.83M1910.12 3896.92V4068.36M2068.83 3896.92V4068.36M-153.069 4068.36H-311.776M-153.069 4068.36H5.63772M-153.069 4068.36V4239.8M-311.776 4068.36V4239.8M5.63772 4068.36H164.345M5.63772 4068.36V4239.8M164.345 4068.36H323.051M164.345 4068.36V4239.8M323.051 4068.36H481.758M323.051 4068.36V4239.8M481.758 4068.36H640.465M481.758 4068.36V4239.8M640.465 4068.36H799.172M640.465 4068.36V4239.8M799.172 4068.36H957.879M799.172 4068.36V4239.8M957.879 4068.36H1116.59M957.879 4068.36V4239.8M1116.59 4068.36H1275.29M1116.59 4068.36V4239.8M1275.29 4068.36H1434M1275.29 4068.36V4239.8M1434 4068.36H1592.7M1434 4068.36V4239.8M1592.7 4068.36H1751.41M1592.7 4068.36V4239.8M1751.41 4068.36H1910.12M1751.41 4068.36V4239.8M1910.12 4068.36H2068.83M1910.12 4068.36V4239.8M2068.83 4068.36V4239.8M-153.069 4239.8H-311.776M-153.069 4239.8H5.63772M-153.069 4239.8V4411.24M-311.776 4239.8V4411.24M5.63772 4239.8H164.345M5.63772 4239.8V4411.24M164.345 4239.8H323.051M164.345 4239.8V4411.24M323.051 4239.8H481.758M323.051 4239.8V4411.24M481.758 4239.8H640.465M481.758 4239.8V4411.24M640.465 4239.8H799.172M640.465 4239.8V4411.24M799.172 4239.8H957.879M799.172 4239.8V4411.24M957.879 4239.8H1116.59M957.879 4239.8V4411.24M1116.59 4239.8H1275.29M1116.59 4239.8V4411.24M1275.29 4239.8H1434M1275.29 4239.8V4411.24M1434 4239.8H1592.7M1434 4239.8V4411.24M1592.7 4239.8H1751.41M1592.7 4239.8V4411.24M1751.41 4239.8H1910.12M1751.41 4239.8V4411.24M1910.12 4239.8H2068.83M1910.12 4239.8V4411.24M2068.83 4239.8V4411.24M-153.069 4411.24H-311.776M-153.069 4411.24H5.63772M-153.069 4411.24V4582.68M-311.776 4411.24V4582.68M5.63772 4411.24H164.345M5.63772 4411.24V4582.68M164.345 4411.24H323.051M164.345 4411.24V4582.68M323.051 4411.24H481.758M323.051 4411.24V4582.68M481.758 4411.24H640.465M481.758 4411.24V4582.68M640.465 4411.24H799.172M640.465 4411.24V4582.68M799.172 4411.24H957.879M799.172 4411.24V4582.68M957.879 4411.24H1116.59M957.879 4411.24V4582.68M1116.59 4411.24H1275.29M1116.59 4411.24V4582.68M1275.29 4411.24H1434M1275.29 4411.24V4582.68M1434 4411.24H1592.7M1434 4411.24V4582.68M1592.7 4411.24H1751.41M1592.7 4411.24V4582.68M1751.41 4411.24H1910.12M1751.41 4411.24V4582.68M1910.12 4411.24H2068.83M1910.12 4411.24V4582.68M2068.83 4411.24V4582.68M-153.069 4582.68H-311.776M-153.069 4582.68H5.63772M-153.069 4582.68V4754.12M-311.776 4582.68V4754.12M5.63772 4582.68H164.345M5.63772 4582.68V4754.12M164.345 4582.68H323.051M164.345 4582.68V4754.12M323.051 4582.68H481.758M323.051 4582.68V4754.12M481.758 4582.68H640.465M481.758 4582.68V4754.12M640.465 4582.68H799.172M640.465 4582.68V4754.12M799.172 4582.68H957.879M799.172 4582.68V4754.12M957.879 4582.68H1116.59M957.879 4582.68V4754.12M1116.59 4582.68H1275.29M1116.59 4582.68V4754.12M1275.29 4582.68H1434M1275.29 4582.68V4754.12M1434 4582.68H1592.7M1434 4582.68V4754.12M1592.7 4582.68H1751.41M1592.7 4582.68V4754.12M1751.41 4582.68H1910.12M1751.41 4582.68V4754.12M1910.12 4582.68H2068.83M1910.12 4582.68V4754.12M2068.83 4582.68V4754.12M-153.069 4754.12H-311.776M-153.069 4754.12H5.63772M-153.069 4754.12V4925.56M-311.776 4754.12V4925.56M5.63772 4754.12H164.345M5.63772 4754.12V4925.56M164.345 4754.12H323.051M164.345 4754.12V4925.56M323.051 4754.12H481.758M323.051 4754.12V4925.56M481.758 4754.12H640.465M481.758 4754.12V4925.56M640.465 4754.12H799.172M640.465 4754.12V4925.56M799.172 4754.12H957.879M799.172 4754.12V4925.56M957.879 4754.12H1116.59M957.879 4754.12V4925.56M1116.59 4754.12H1275.29M1116.59 4754.12V4925.56M1275.29 4754.12H1434M1275.29 4754.12V4925.56M1434 4754.12H1592.7M1434 4754.12V4925.56M1592.7 4754.12H1751.41M1592.7 4754.12V4925.56M1751.41 4754.12H1910.12M1751.41 4754.12V4925.56M1910.12 4754.12H2068.83M1910.12 4754.12V4925.56M2068.83 4754.12V4925.56M-153.069 4925.56H-311.776M-153.069 4925.56H5.63772M-153.069 4925.56V5097M-311.776 4925.56V5097M5.63772 4925.56H164.345M5.63772 4925.56V5097M164.345 4925.56H323.051M164.345 4925.56V5097M323.051 4925.56H481.758M323.051 4925.56V5097M481.758 4925.56H640.465M481.758 4925.56V5097M640.465 4925.56H799.172M640.465 4925.56V5097M799.172 4925.56H957.879M799.172 4925.56V5097M957.879 4925.56H1116.59M957.879 4925.56V5097M1116.59 4925.56H1275.29M1116.59 4925.56V5097M1275.29 4925.56H1434M1275.29 4925.56V5097M1434 4925.56H1592.7M1434 4925.56V5097M1592.7 4925.56H1751.41M1592.7 4925.56V5097M1751.41 4925.56H1910.12M1751.41 4925.56V5097M1910.12 4925.56H2068.83M1910.12 4925.56V5097M2068.83 4925.56V5097M-153.069 5097H-311.776M-153.069 5097H5.63772M-153.069 5097V5268.44M-311.776 5097V5268.44M5.63772 5097H164.345M5.63772 5097V5268.44M164.345 5097H323.051M164.345 5097V5268.44M323.051 5097H481.758M323.051 5097V5268.44M481.758 5097H640.465M481.758 5097V5268.44M640.465 5097H799.172M640.465 5097V5268.44M799.172 5097H957.879M799.172 5097V5268.44M957.879 5097H1116.59M957.879 5097V5268.44M1116.59 5097H1275.29M1116.59 5097V5268.44M1275.29 5097H1434M1275.29 5097V5268.44M1434 5097H1592.7M1434 5097V5268.44M1592.7 5097H1751.41M1592.7 5097V5268.44M1751.41 5097H1910.12M1751.41 5097V5268.44M1910.12 5097H2068.83M1910.12 5097V5268.44M2068.83 5097V5268.44M-153.069 5268.44H-311.776M-153.069 5268.44H5.63772M-153.069 5268.44V5439.89M-311.776 5268.44V5439.89M5.63772 5268.44H164.345M5.63772 5268.44V5439.89M164.345 5268.44H323.051M164.345 5268.44V5439.89M323.051 5268.44H481.758M323.051 5268.44V5439.89M481.758 5268.44H640.465M481.758 5268.44V5439.89M640.465 5268.44H799.172M640.465 5268.44V5439.89M799.172 5268.44H957.879M799.172 5268.44V5439.89M957.879 5268.44H1116.59M957.879 5268.44V5439.89M1116.59 5268.44H1275.29M1116.59 5268.44V5439.89M1275.29 5268.44H1434M1275.29 5268.44V5439.89M1434 5268.44H1592.7M1434 5268.44V5439.89M1592.7 5268.44H1751.41M1592.7 5268.44V5439.89M1751.41 5268.44H1910.12M1751.41 5268.44V5439.89M1910.12 5268.44H2068.83M1910.12 5268.44V5439.89M2068.83 5268.44V5439.89M-153.069 5439.89H-311.776M-153.069 5439.89H5.63772M-153.069 5439.89V5611.32M-311.776 5439.89V5611.32M5.63772 5439.89H164.345M5.63772 5439.89V5611.32M164.345 5439.89H323.051M164.345 5439.89V5611.32M323.051 5439.89H481.758M323.051 5439.89V5611.32M481.758 5439.89H640.465M481.758 5439.89V5611.32M640.465 5439.89H799.172M640.465 5439.89V5611.32M799.172 5439.89H957.879M799.172 5439.89V5611.32M957.879 5439.89H1116.59M957.879 5439.89V5611.32M1116.59 5439.89H1275.29M1116.59 5439.89V5611.32M1275.29 5439.89H1434M1275.29 5439.89V5611.32M1434 5439.89H1592.7M1434 5439.89V5611.32M1592.7 5439.89H1751.41M1592.7 5439.89V5611.32M1751.41 5439.89H1910.12M1751.41 5439.89V5611.32M1910.12 5439.89H2068.83M1910.12 5439.89V5611.32M2068.83 5439.89V5611.32M-153.069 5611.32H-311.776M-153.069 5611.32H5.63772M-153.069 5611.32V5782.75M-311.776 5611.32V5782.75H-153.069M5.63772 5611.32H164.345M5.63772 5611.32V5782.75M164.345 5611.32H323.051M164.345 5611.32V5782.75M323.051 5611.32H481.758M323.051 5611.32V5782.75M481.758 5611.32H640.465M481.758 5611.32V5782.75M640.465 5611.32H799.172M640.465 5611.32V5782.75M799.172 5611.32H957.879M799.172 5611.32V5782.75M957.879 5611.32H1116.59M957.879 5611.32V5782.75M1116.59 5611.32H1275.29M1116.59 5611.32V5782.75M1275.29 5611.32H1434M1275.29 5611.32V5782.75M1434 5611.32H1592.7M1434 5611.32V5782.75M1592.7 5611.32H1751.41M1592.7 5611.32V5782.75M1751.41 5611.32H1910.12M1751.41 5611.32V5782.75M1910.12 5611.32H2068.83M1910.12 5611.32V5782.75M2068.83 5611.32V5782.75H1910.12M-153.069 5782.75H5.63772M5.63772 5782.75H164.345M164.345 5782.75H323.051M323.051 5782.75H481.758M481.758 5782.75H640.465M640.465 5782.75H799.172M799.172 5782.75H957.879M957.879 5782.75H1116.59M1116.59 5782.75H1275.29M1275.29 5782.75H1434M1434 5782.75H1592.7M1592.7 5782.75H1751.41M1751.41 5782.75H1910.12" stroke="white" stroke-opacity="0.15"/>
<path d="M-153.293 5050H-312V5221.44M-153.293 5050V5221.44M-153.293 5050H5.41354M-312 5221.44H-153.293M-312 5221.44V5392.88M-153.293 5221.44H5.41354M-153.293 5221.44V5392.88M5.41354 5050V5221.44M5.41354 5050H164.12M-312 5392.88H-153.293M-312 5392.88V5564.32M5.41354 5221.44H164.12M5.41354 5221.44V5392.88M-153.293 5392.88H5.41354M-153.293 5392.88V5564.32M164.12 5050V5221.44M164.12 5050H322.827M164.12 5221.44H322.827M164.12 5221.44V5392.88M5.41354 5392.88H164.12M5.41354 5392.88V5564.32M-153.293 5564.32H-312M-153.293 5564.32H5.41354M-153.293 5564.32V5735.76M-312 5564.32V5735.76M322.827 5050V5221.44M322.827 5050H481.534M322.827 5221.44H481.534M322.827 5221.44V5392.88M164.12 5392.88H322.827M164.12 5392.88V5564.32M5.41354 5564.32H164.12M5.41354 5564.32V5735.76M481.534 5050V5221.44M481.534 5050H640.241M481.534 5221.44H640.241M481.534 5221.44V5392.88M322.827 5392.88H481.534M322.827 5392.88V5564.32M164.12 5564.32H322.827M164.12 5564.32V5735.76M640.241 5050V5221.44M640.241 5050H798.948M640.241 5221.44H798.948M640.241 5221.44V5392.88M481.534 5392.88H640.241M481.534 5392.88V5564.32M322.827 5564.32H481.534M322.827 5564.32V5735.76M798.948 5050V5221.44M798.948 5050H957.655M798.948 5221.44H957.655M798.948 5221.44V5392.88M640.241 5392.88H798.948M640.241 5392.88V5564.32M481.534 5564.32H640.241M481.534 5564.32V5735.76M957.655 5050V5221.44M957.655 5050H1116.36M957.655 5221.44H1116.36M957.655 5221.44V5392.88M798.948 5392.88H957.655M798.948 5392.88V5564.32M640.241 5564.32H798.948M640.241 5564.32V5735.76M1116.36 5050V5221.44M1116.36 5050H1275.07M1116.36 5221.44H1275.07M1116.36 5221.44V5392.88M957.655 5392.88H1116.36M957.655 5392.88V5564.32M798.948 5564.32H957.655M798.948 5564.32V5735.76M1275.07 5050V5221.44M1275.07 5050H1433.78M1275.07 5221.44H1433.78M1275.07 5221.44V5392.88M1116.36 5392.88H1275.07M1116.36 5392.88V5564.32M957.655 5564.32H1116.36M957.655 5564.32V5735.76M1433.78 5050V5221.44M1433.78 5050H1592.48M1433.78 5221.44H1592.48M1433.78 5221.44V5392.88M1275.07 5392.88H1433.78M1275.07 5392.88V5564.32M1116.36 5564.32H1275.07M1116.36 5564.32V5735.76M1592.48 5050V5221.44M1592.48 5050H1751.19M1592.48 5221.44H1751.19M1592.48 5221.44V5392.88M1433.78 5392.88H1592.48M1433.78 5392.88V5564.32M1275.07 5564.32H1433.78M1275.07 5564.32V5735.76M1751.19 5050V5221.44M1751.19 5050H1909.9M1751.19 5221.44H1909.9M1751.19 5221.44V5392.88M1592.48 5392.88H1751.19M1592.48 5392.88V5564.32M1433.78 5564.32H1592.48M1433.78 5564.32V5735.76M1909.9 5050V5221.44M1909.9 5050H2068.6V5221.44M1909.9 5221.44H2068.6M1909.9 5221.44V5392.88M1751.19 5392.88H1909.9M1751.19 5392.88V5564.32M1592.48 5564.32H1751.19M1592.48 5564.32V5735.76M2068.6 5221.44V5392.88M1909.9 5392.88H2068.6M1909.9 5392.88V5564.32M1751.19 5564.32H1909.9M1751.19 5564.32V5735.76M2068.6 5392.88V5564.32M1909.9 5564.32H2068.6M1909.9 5564.32V5735.76M2068.6 5564.32V5735.76M-153.293 5735.76H-312M-153.293 5735.76H5.41354M-153.293 5735.76V5907.2M-312 5735.76V5907.2M5.41354 5735.76H164.12M5.41354 5735.76V5907.2M164.12 5735.76H322.827M164.12 5735.76V5907.2M322.827 5735.76H481.534M322.827 5735.76V5907.2M481.534 5735.76H640.241M481.534 5735.76V5907.2M640.241 5735.76H798.948M640.241 5735.76V5907.2M798.948 5735.76H957.655M798.948 5735.76V5907.2M957.655 5735.76H1116.36M957.655 5735.76V5907.2M1116.36 5735.76H1275.07M1116.36 5735.76V5907.2M1275.07 5735.76H1433.78M1275.07 5735.76V5907.2M1433.78 5735.76H1592.48M1433.78 5735.76V5907.2M1592.48 5735.76H1751.19M1592.48 5735.76V5907.2M1751.19 5735.76H1909.9M1751.19 5735.76V5907.2M1909.9 5735.76H2068.6M1909.9 5735.76V5907.2M2068.6 5735.76V5907.2M-153.293 5907.2H-312M-153.293 5907.2H5.41354M-153.293 5907.2V6078.64M-312 5907.2V6078.64M5.41354 5907.2H164.12M5.41354 5907.2V6078.64M164.12 5907.2H322.827M164.12 5907.2V6078.64M322.827 5907.2H481.534M322.827 5907.2V6078.64M481.534 5907.2H640.241M481.534 5907.2V6078.64M640.241 5907.2H798.948M640.241 5907.2V6078.64M798.948 5907.2H957.655M798.948 5907.2V6078.64M957.655 5907.2H1116.36M957.655 5907.2V6078.64M1116.36 5907.2H1275.07M1116.36 5907.2V6078.64M1275.07 5907.2H1433.78M1275.07 5907.2V6078.64M1433.78 5907.2H1592.48M1433.78 5907.2V6078.64M1592.48 5907.2H1751.19M1592.48 5907.2V6078.64M1751.19 5907.2H1909.9M1751.19 5907.2V6078.64M1909.9 5907.2H2068.6M1909.9 5907.2V6078.64M2068.6 5907.2V6078.64M-153.293 6078.64H-312M-153.293 6078.64H5.41354M-153.293 6078.64V6250.08M-312 6078.64V6250.08M5.41354 6078.64H164.12M5.41354 6078.64V6250.08M164.12 6078.64H322.827M164.12 6078.64V6250.08M322.827 6078.64H481.534M322.827 6078.64V6250.08M481.534 6078.64H640.241M481.534 6078.64V6250.08M640.241 6078.64H798.948M640.241 6078.64V6250.08M798.948 6078.64H957.655M798.948 6078.64V6250.08M957.655 6078.64H1116.36M957.655 6078.64V6250.08M1116.36 6078.64H1275.07M1116.36 6078.64V6250.08M1275.07 6078.64H1433.78M1275.07 6078.64V6250.08M1433.78 6078.64H1592.48M1433.78 6078.64V6250.08M1592.48 6078.64H1751.19M1592.48 6078.64V6250.08M1751.19 6078.64H1909.9M1751.19 6078.64V6250.08M1909.9 6078.64H2068.6M1909.9 6078.64V6250.08M2068.6 6078.64V6250.08M-153.293 6250.08H-312M-153.293 6250.08H5.41354M-153.293 6250.08V6421.52M-312 6250.08V6421.52M5.41354 6250.08H164.12M5.41354 6250.08V6421.52M164.12 6250.08H322.827M164.12 6250.08V6421.52M322.827 6250.08H481.534M322.827 6250.08V6421.52M481.534 6250.08H640.241M481.534 6250.08V6421.52M640.241 6250.08H798.948M640.241 6250.08V6421.52M798.948 6250.08H957.655M798.948 6250.08V6421.52M957.655 6250.08H1116.36M957.655 6250.08V6421.52M1116.36 6250.08H1275.07M1116.36 6250.08V6421.52M1275.07 6250.08H1433.78M1275.07 6250.08V6421.52M1433.78 6250.08H1592.48M1433.78 6250.08V6421.52M1592.48 6250.08H1751.19M1592.48 6250.08V6421.52M1751.19 6250.08H1909.9M1751.19 6250.08V6421.52M1909.9 6250.08H2068.6M1909.9 6250.08V6421.52M2068.6 6250.08V6421.52M-153.293 6421.52H-312M-153.293 6421.52H5.41354M-153.293 6421.52V6592.96M-312 6421.52V6592.96M5.41354 6421.52H164.12M5.41354 6421.52V6592.96M164.12 6421.52H322.827M164.12 6421.52V6592.96M322.827 6421.52H481.534M322.827 6421.52V6592.96M481.534 6421.52H640.241M481.534 6421.52V6592.96M640.241 6421.52H798.948M640.241 6421.52V6592.96M798.948 6421.52H957.655M798.948 6421.52V6592.96M957.655 6421.52H1116.36M957.655 6421.52V6592.96M1116.36 6421.52H1275.07M1116.36 6421.52V6592.96M1275.07 6421.52H1433.78M1275.07 6421.52V6592.96M1433.78 6421.52H1592.48M1433.78 6421.52V6592.96M1592.48 6421.52H1751.19M1592.48 6421.52V6592.96M1751.19 6421.52H1909.9M1751.19 6421.52V6592.96M1909.9 6421.52H2068.6M1909.9 6421.52V6592.96M2068.6 6421.52V6592.96M-153.293 6592.96H-312M-153.293 6592.96H5.41354M-153.293 6592.96V6764.4M-312 6592.96V6764.4M5.41354 6592.96H164.12M5.41354 6592.96V6764.4M164.12 6592.96H322.827M164.12 6592.96V6764.4M322.827 6592.96H481.534M322.827 6592.96V6764.4M481.534 6592.96H640.241M481.534 6592.96V6764.4M640.241 6592.96H798.948M640.241 6592.96V6764.4M798.948 6592.96H957.655M798.948 6592.96V6764.4M957.655 6592.96H1116.36M957.655 6592.96V6764.4M1116.36 6592.96H1275.07M1116.36 6592.96V6764.4M1275.07 6592.96H1433.78M1275.07 6592.96V6764.4M1433.78 6592.96H1592.48M1433.78 6592.96V6764.4M1592.48 6592.96H1751.19M1592.48 6592.96V6764.4M1751.19 6592.96H1909.9M1751.19 6592.96V6764.4M1909.9 6592.96H2068.6M1909.9 6592.96V6764.4M2068.6 6592.96V6764.4M-153.293 6764.4H-312M-153.293 6764.4H5.41354M-153.293 6764.4V6935.84M-312 6764.4V6935.84M5.41354 6764.4H164.12M5.41354 6764.4V6935.84M164.12 6764.4H322.827M164.12 6764.4V6935.84M322.827 6764.4H481.534M322.827 6764.4V6935.84M481.534 6764.4H640.241M481.534 6764.4V6935.84M640.241 6764.4H798.948M640.241 6764.4V6935.84M798.948 6764.4H957.655M798.948 6764.4V6935.84M957.655 6764.4H1116.36M957.655 6764.4V6935.84M1116.36 6764.4H1275.07M1116.36 6764.4V6935.84M1275.07 6764.4H1433.78M1275.07 6764.4V6935.84M1433.78 6764.4H1592.48M1433.78 6764.4V6935.84M1592.48 6764.4H1751.19M1592.48 6764.4V6935.84M1751.19 6764.4H1909.9M1751.19 6764.4V6935.84M1909.9 6764.4H2068.6M1909.9 6764.4V6935.84M2068.6 6764.4V6935.84M-153.293 6935.84H-312M-153.293 6935.84H5.41354M-153.293 6935.84V7107.28M-312 6935.84V7107.28M5.41354 6935.84H164.12M5.41354 6935.84V7107.28M164.12 6935.84H322.827M164.12 6935.84V7107.28M322.827 6935.84H481.534M322.827 6935.84V7107.28M481.534 6935.84H640.241M481.534 6935.84V7107.28M640.241 6935.84H798.948M640.241 6935.84V7107.28M798.948 6935.84H957.655M798.948 6935.84V7107.28M957.655 6935.84H1116.36M957.655 6935.84V7107.28M1116.36 6935.84H1275.07M1116.36 6935.84V7107.28M1275.07 6935.84H1433.78M1275.07 6935.84V7107.28M1433.78 6935.84H1592.48M1433.78 6935.84V7107.28M1592.48 6935.84H1751.19M1592.48 6935.84V7107.28M1751.19 6935.84H1909.9M1751.19 6935.84V7107.28M1909.9 6935.84H2068.6M1909.9 6935.84V7107.28M2068.6 6935.84V7107.28M-153.293 7107.28H-312M-153.293 7107.28H5.41354M-153.293 7107.28V7278.73M-312 7107.28V7278.73M5.41354 7107.28H164.12M5.41354 7107.28V7278.73M164.12 7107.28H322.827M164.12 7107.28V7278.73M322.827 7107.28H481.534M322.827 7107.28V7278.73M481.534 7107.28H640.241M481.534 7107.28V7278.73M640.241 7107.28H798.948M640.241 7107.28V7278.73M798.948 7107.28H957.655M798.948 7107.28V7278.73M957.655 7107.28H1116.36M957.655 7107.28V7278.73M1116.36 7107.28H1275.07M1116.36 7107.28V7278.73M1275.07 7107.28H1433.78M1275.07 7107.28V7278.73M1433.78 7107.28H1592.48M1433.78 7107.28V7278.73M1592.48 7107.28H1751.19M1592.48 7107.28V7278.73M1751.19 7107.28H1909.9M1751.19 7107.28V7278.73M1909.9 7107.28H2068.6M1909.9 7107.28V7278.73M2068.6 7107.28V7278.73M-153.293 7278.73H-312M-153.293 7278.73H5.41354M-153.293 7278.73V7450.16M-312 7278.73V7450.16M5.41354 7278.73H164.12M5.41354 7278.73V7450.16M164.12 7278.73H322.827M164.12 7278.73V7450.16M322.827 7278.73H481.534M322.827 7278.73V7450.16M481.534 7278.73H640.241M481.534 7278.73V7450.16M640.241 7278.73H798.948M640.241 7278.73V7450.16M798.948 7278.73H957.655M798.948 7278.73V7450.16M957.655 7278.73H1116.36M957.655 7278.73V7450.16M1116.36 7278.73H1275.07M1116.36 7278.73V7450.16M1275.07 7278.73H1433.78M1275.07 7278.73V7450.16M1433.78 7278.73H1592.48M1433.78 7278.73V7450.16M1592.48 7278.73H1751.19M1592.48 7278.73V7450.16M1751.19 7278.73H1909.9M1751.19 7278.73V7450.16M1909.9 7278.73H2068.6M1909.9 7278.73V7450.16M2068.6 7278.73V7450.16M-153.293 7450.16H-312M-153.293 7450.16H5.41354M-153.293 7450.16V7621.59M-312 7450.16V7621.59H-153.293M5.41354 7450.16H164.12M5.41354 7450.16V7621.59M164.12 7450.16H322.827M164.12 7450.16V7621.59M322.827 7450.16H481.534M322.827 7450.16V7621.59M481.534 7450.16H640.241M481.534 7450.16V7621.59M640.241 7450.16H798.948M640.241 7450.16V7621.59M798.948 7450.16H957.655M798.948 7450.16V7621.59M957.655 7450.16H1116.36M957.655 7450.16V7621.59M1116.36 7450.16H1275.07M1116.36 7450.16V7621.59M1275.07 7450.16H1433.78M1275.07 7450.16V7621.59M1433.78 7450.16H1592.48M1433.78 7450.16V7621.59M1592.48 7450.16H1751.19M1592.48 7450.16V7621.59M1751.19 7450.16H1909.9M1751.19 7450.16V7621.59M1909.9 7450.16H2068.6M1909.9 7450.16V7621.59M2068.6 7450.16V7621.59H1909.9M-153.293 7621.59H5.41354M5.41354 7621.59H164.12M164.12 7621.59H322.827M322.827 7621.59H481.534M481.534 7621.59H640.241M640.241 7621.59H798.948M798.948 7621.59H957.655M957.655 7621.59H1116.36M1116.36 7621.59H1275.07M1275.07 7621.59H1433.78M1433.78 7621.59H1592.48M1592.48 7621.59H1751.19M1751.19 7621.59H1909.9" stroke="white" stroke-opacity="0.15"/>
</g>
<g clip-path="url(#clip4_44_649)">
<path d="M-153.069 4706.16H-311.776V4877.6M-153.069 4706.16V4877.6M-153.069 4706.16H5.63772M-311.776 4877.6H-153.069M-311.776 4877.6V5049.04M-153.069 4877.6H5.63772M-153.069 4877.6V5049.04M5.63772 4706.16V4877.6M5.63772 4706.16H164.345M-311.776 5049.04H-153.069M-311.776 5049.04V5220.48M5.63772 4877.6H164.345M5.63772 4877.6V5049.04M-153.069 5049.04H5.63772M-153.069 5049.04V5220.48M164.345 4706.16V4877.6M164.345 4706.16H323.051M164.345 4877.6H323.051M164.345 4877.6V5049.04M5.63772 5049.04H164.345M5.63772 5049.04V5220.48M-153.069 5220.48H-311.776M-153.069 5220.48H5.63772M-153.069 5220.48V5391.92M-311.776 5220.48V5391.92M323.051 4706.16V4877.6M323.051 4706.16H481.758M323.051 4877.6H481.758M323.051 4877.6V5049.04M164.345 5049.04H323.051M164.345 5049.04V5220.48M5.63772 5220.48H164.345M5.63772 5220.48V5391.92M481.758 4706.16V4877.6M481.758 4706.16H640.465M481.758 4877.6H640.465M481.758 4877.6V5049.04M323.051 5049.04H481.758M323.051 5049.04V5220.48M164.345 5220.48H323.051M164.345 5220.48V5391.92M640.465 4706.16V4877.6M640.465 4706.16H799.172M640.465 4877.6H799.172M640.465 4877.6V5049.04M481.758 5049.04H640.465M481.758 5049.04V5220.48M323.051 5220.48H481.758M323.051 5220.48V5391.92M799.172 4706.16V4877.6M799.172 4706.16H957.879M799.172 4877.6H957.879M799.172 4877.6V5049.04M640.465 5049.04H799.172M640.465 5049.04V5220.48M481.758 5220.48H640.465M481.758 5220.48V5391.92M957.879 4706.16V4877.6M957.879 4706.16H1116.59M957.879 4877.6H1116.59M957.879 4877.6V5049.04M799.172 5049.04H957.879M799.172 5049.04V5220.48M640.465 5220.48H799.172M640.465 5220.48V5391.92M1116.59 4706.16V4877.6M1116.59 4706.16H1275.29M1116.59 4877.6H1275.29M1116.59 4877.6V5049.04M957.879 5049.04H1116.59M957.879 5049.04V5220.48M799.172 5220.48H957.879M799.172 5220.48V5391.92M1275.29 4706.16V4877.6M1275.29 4706.16H1434M1275.29 4877.6H1434M1275.29 4877.6V5049.04M1116.59 5049.04H1275.29M1116.59 5049.04V5220.48M957.879 5220.48H1116.59M957.879 5220.48V5391.92M1434 4706.16V4877.6M1434 4706.16H1592.7M1434 4877.6H1592.7M1434 4877.6V5049.04M1275.29 5049.04H1434M1275.29 5049.04V5220.48M1116.59 5220.48H1275.29M1116.59 5220.48V5391.92M1592.7 4706.16V4877.6M1592.7 4706.16H1751.41M1592.7 4877.6H1751.41M1592.7 4877.6V5049.04M1434 5049.04H1592.7M1434 5049.04V5220.48M1275.29 5220.48H1434M1275.29 5220.48V5391.92M1751.41 4706.16V4877.6M1751.41 4706.16H1910.12M1751.41 4877.6H1910.12M1751.41 4877.6V5049.04M1592.7 5049.04H1751.41M1592.7 5049.04V5220.48M1434 5220.48H1592.7M1434 5220.48V5391.92M1910.12 4706.16V4877.6M1910.12 4706.16H2068.83V4877.6M1910.12 4877.6H2068.83M1910.12 4877.6V5049.04M1751.41 5049.04H1910.12M1751.41 5049.04V5220.48M1592.7 5220.48H1751.41M1592.7 5220.48V5391.92M2068.83 4877.6V5049.04M1910.12 5049.04H2068.83M1910.12 5049.04V5220.48M1751.41 5220.48H1910.12M1751.41 5220.48V5391.92M2068.83 5049.04V5220.48M1910.12 5220.48H2068.83M1910.12 5220.48V5391.92M2068.83 5220.48V5391.92M-153.069 5391.92H-311.776M-153.069 5391.92H5.63772M-153.069 5391.92V5563.36M-311.776 5391.92V5563.36M5.63772 5391.92H164.345M5.63772 5391.92V5563.36M164.345 5391.92H323.051M164.345 5391.92V5563.36M323.051 5391.92H481.758M323.051 5391.92V5563.36M481.758 5391.92H640.465M481.758 5391.92V5563.36M640.465 5391.92H799.172M640.465 5391.92V5563.36M799.172 5391.92H957.879M799.172 5391.92V5563.36M957.879 5391.92H1116.59M957.879 5391.92V5563.36M1116.59 5391.92H1275.29M1116.59 5391.92V5563.36M1275.29 5391.92H1434M1275.29 5391.92V5563.36M1434 5391.92H1592.7M1434 5391.92V5563.36M1592.7 5391.92H1751.41M1592.7 5391.92V5563.36M1751.41 5391.92H1910.12M1751.41 5391.92V5563.36M1910.12 5391.92H2068.83M1910.12 5391.92V5563.36M2068.83 5391.92V5563.36M-153.069 5563.36H-311.776M-153.069 5563.36H5.63772M-153.069 5563.36V5734.8M-311.776 5563.36V5734.8M5.63772 5563.36H164.345M5.63772 5563.36V5734.8M164.345 5563.36H323.051M164.345 5563.36V5734.8M323.051 5563.36H481.758M323.051 5563.36V5734.8M481.758 5563.36H640.465M481.758 5563.36V5734.8M640.465 5563.36H799.172M640.465 5563.36V5734.8M799.172 5563.36H957.879M799.172 5563.36V5734.8M957.879 5563.36H1116.59M957.879 5563.36V5734.8M1116.59 5563.36H1275.29M1116.59 5563.36V5734.8M1275.29 5563.36H1434M1275.29 5563.36V5734.8M1434 5563.36H1592.7M1434 5563.36V5734.8M1592.7 5563.36H1751.41M1592.7 5563.36V5734.8M1751.41 5563.36H1910.12M1751.41 5563.36V5734.8M1910.12 5563.36H2068.83M1910.12 5563.36V5734.8M2068.83 5563.36V5734.8M-153.069 5734.8H-311.776M-153.069 5734.8H5.63772M-153.069 5734.8V5906.24M-311.776 5734.8V5906.24M5.63772 5734.8H164.345M5.63772 5734.8V5906.24M164.345 5734.8H323.051M164.345 5734.8V5906.24M323.051 5734.8H481.758M323.051 5734.8V5906.24M481.758 5734.8H640.465M481.758 5734.8V5906.24M640.465 5734.8H799.172M640.465 5734.8V5906.24M799.172 5734.8H957.879M799.172 5734.8V5906.24M957.879 5734.8H1116.59M957.879 5734.8V5906.24M1116.59 5734.8H1275.29M1116.59 5734.8V5906.24M1275.29 5734.8H1434M1275.29 5734.8V5906.24M1434 5734.8H1592.7M1434 5734.8V5906.24M1592.7 5734.8H1751.41M1592.7 5734.8V5906.24M1751.41 5734.8H1910.12M1751.41 5734.8V5906.24M1910.12 5734.8H2068.83M1910.12 5734.8V5906.24M2068.83 5734.8V5906.24M-153.069 5906.24H-311.776M-153.069 5906.24H5.63772M-153.069 5906.24V6077.68M-311.776 5906.24V6077.68M5.63772 5906.24H164.345M5.63772 5906.24V6077.68M164.345 5906.24H323.051M164.345 5906.24V6077.68M323.051 5906.24H481.758M323.051 5906.24V6077.68M481.758 5906.24H640.465M481.758 5906.24V6077.68M640.465 5906.24H799.172M640.465 5906.24V6077.68M799.172 5906.24H957.879M799.172 5906.24V6077.68M957.879 5906.24H1116.59M957.879 5906.24V6077.68M1116.59 5906.24H1275.29M1116.59 5906.24V6077.68M1275.29 5906.24H1434M1275.29 5906.24V6077.68M1434 5906.24H1592.7M1434 5906.24V6077.68M1592.7 5906.24H1751.41M1592.7 5906.24V6077.68M1751.41 5906.24H1910.12M1751.41 5906.24V6077.68M1910.12 5906.24H2068.83M1910.12 5906.24V6077.68M2068.83 5906.24V6077.68M-153.069 6077.68H-311.776M-153.069 6077.68H5.63772M-153.069 6077.68V6249.12M-311.776 6077.68V6249.12M5.63772 6077.68H164.345M5.63772 6077.68V6249.12M164.345 6077.68H323.051M164.345 6077.68V6249.12M323.051 6077.68H481.758M323.051 6077.68V6249.12M481.758 6077.68H640.465M481.758 6077.68V6249.12M640.465 6077.68H799.172M640.465 6077.68V6249.12M799.172 6077.68H957.879M799.172 6077.68V6249.12M957.879 6077.68H1116.59M957.879 6077.68V6249.12M1116.59 6077.68H1275.29M1116.59 6077.68V6249.12M1275.29 6077.68H1434M1275.29 6077.68V6249.12M1434 6077.68H1592.7M1434 6077.68V6249.12M1592.7 6077.68H1751.41M1592.7 6077.68V6249.12M1751.41 6077.68H1910.12M1751.41 6077.68V6249.12M1910.12 6077.68H2068.83M1910.12 6077.68V6249.12M2068.83 6077.68V6249.12M-153.069 6249.12H-311.776M-153.069 6249.12H5.63772M-153.069 6249.12V6420.56M-311.776 6249.12V6420.56M5.63772 6249.12H164.345M5.63772 6249.12V6420.56M164.345 6249.12H323.051M164.345 6249.12V6420.56M323.051 6249.12H481.758M323.051 6249.12V6420.56M481.758 6249.12H640.465M481.758 6249.12V6420.56M640.465 6249.12H799.172M640.465 6249.12V6420.56M799.172 6249.12H957.879M799.172 6249.12V6420.56M957.879 6249.12H1116.59M957.879 6249.12V6420.56M1116.59 6249.12H1275.29M1116.59 6249.12V6420.56M1275.29 6249.12H1434M1275.29 6249.12V6420.56M1434 6249.12H1592.7M1434 6249.12V6420.56M1592.7 6249.12H1751.41M1592.7 6249.12V6420.56M1751.41 6249.12H1910.12M1751.41 6249.12V6420.56M1910.12 6249.12H2068.83M1910.12 6249.12V6420.56M2068.83 6249.12V6420.56M-153.069 6420.56H-311.776M-153.069 6420.56H5.63772M-153.069 6420.56V6592M-311.776 6420.56V6592M5.63772 6420.56H164.345M5.63772 6420.56V6592M164.345 6420.56H323.051M164.345 6420.56V6592M323.051 6420.56H481.758M323.051 6420.56V6592M481.758 6420.56H640.465M481.758 6420.56V6592M640.465 6420.56H799.172M640.465 6420.56V6592M799.172 6420.56H957.879M799.172 6420.56V6592M957.879 6420.56H1116.59M957.879 6420.56V6592M1116.59 6420.56H1275.29M1116.59 6420.56V6592M1275.29 6420.56H1434M1275.29 6420.56V6592M1434 6420.56H1592.7M1434 6420.56V6592M1592.7 6420.56H1751.41M1592.7 6420.56V6592M1751.41 6420.56H1910.12M1751.41 6420.56V6592M1910.12 6420.56H2068.83M1910.12 6420.56V6592M2068.83 6420.56V6592M-153.069 6592H-311.776M-153.069 6592H5.63772M-153.069 6592V6763.44M-311.776 6592V6763.44M5.63772 6592H164.345M5.63772 6592V6763.44M164.345 6592H323.051M164.345 6592V6763.44M323.051 6592H481.758M323.051 6592V6763.44M481.758 6592H640.465M481.758 6592V6763.44M640.465 6592H799.172M640.465 6592V6763.44M799.172 6592H957.879M799.172 6592V6763.44M957.879 6592H1116.59M957.879 6592V6763.44M1116.59 6592H1275.29M1116.59 6592V6763.44M1275.29 6592H1434M1275.29 6592V6763.44M1434 6592H1592.7M1434 6592V6763.44M1592.7 6592H1751.41M1592.7 6592V6763.44M1751.41 6592H1910.12M1751.41 6592V6763.44M1910.12 6592H2068.83M1910.12 6592V6763.44M2068.83 6592V6763.44M-153.069 6763.44H-311.776M-153.069 6763.44H5.63772M-153.069 6763.44V6934.89M-311.776 6763.44V6934.89M5.63772 6763.44H164.345M5.63772 6763.44V6934.89M164.345 6763.44H323.051M164.345 6763.44V6934.89M323.051 6763.44H481.758M323.051 6763.44V6934.89M481.758 6763.44H640.465M481.758 6763.44V6934.89M640.465 6763.44H799.172M640.465 6763.44V6934.89M799.172 6763.44H957.879M799.172 6763.44V6934.89M957.879 6763.44H1116.59M957.879 6763.44V6934.89M1116.59 6763.44H1275.29M1116.59 6763.44V6934.89M1275.29 6763.44H1434M1275.29 6763.44V6934.89M1434 6763.44H1592.7M1434 6763.44V6934.89M1592.7 6763.44H1751.41M1592.7 6763.44V6934.89M1751.41 6763.44H1910.12M1751.41 6763.44V6934.89M1910.12 6763.44H2068.83M1910.12 6763.44V6934.89M2068.83 6763.44V6934.89M-153.069 6934.89H-311.776M-153.069 6934.89H5.63772M-153.069 6934.89V7106.32M-311.776 6934.89V7106.32M5.63772 6934.89H164.345M5.63772 6934.89V7106.32M164.345 6934.89H323.051M164.345 6934.89V7106.32M323.051 6934.89H481.758M323.051 6934.89V7106.32M481.758 6934.89H640.465M481.758 6934.89V7106.32M640.465 6934.89H799.172M640.465 6934.89V7106.32M799.172 6934.89H957.879M799.172 6934.89V7106.32M957.879 6934.89H1116.59M957.879 6934.89V7106.32M1116.59 6934.89H1275.29M1116.59 6934.89V7106.32M1275.29 6934.89H1434M1275.29 6934.89V7106.32M1434 6934.89H1592.7M1434 6934.89V7106.32M1592.7 6934.89H1751.41M1592.7 6934.89V7106.32M1751.41 6934.89H1910.12M1751.41 6934.89V7106.32M1910.12 6934.89H2068.83M1910.12 6934.89V7106.32M2068.83 6934.89V7106.32M-153.069 7106.32H-311.776M-153.069 7106.32H5.63772M-153.069 7106.32V7277.75M-311.776 7106.32V7277.75H-153.069M5.63772 7106.32H164.345M5.63772 7106.32V7277.75M164.345 7106.32H323.051M164.345 7106.32V7277.75M323.051 7106.32H481.758M323.051 7106.32V7277.75M481.758 7106.32H640.465M481.758 7106.32V7277.75M640.465 7106.32H799.172M640.465 7106.32V7277.75M799.172 7106.32H957.879M799.172 7106.32V7277.75M957.879 7106.32H1116.59M957.879 7106.32V7277.75M1116.59 7106.32H1275.29M1116.59 7106.32V7277.75M1275.29 7106.32H1434M1275.29 7106.32V7277.75M1434 7106.32H1592.7M1434 7106.32V7277.75M1592.7 7106.32H1751.41M1592.7 7106.32V7277.75M1751.41 7106.32H1910.12M1751.41 7106.32V7277.75M1910.12 7106.32H2068.83M1910.12 7106.32V7277.75M2068.83 7106.32V7277.75H1910.12M-153.069 7277.75H5.63772M5.63772 7277.75H164.345M164.345 7277.75H323.051M323.051 7277.75H481.758M481.758 7277.75H640.465M640.465 7277.75H799.172M799.172 7277.75H957.879M957.879 7277.75H1116.59M1116.59 7277.75H1275.29M1275.29 7277.75H1434M1434 7277.75H1592.7M1592.7 7277.75H1751.41M1751.41 7277.75H1910.12" stroke="white" stroke-opacity="0.15"/>
</g>
<defs>
<radialGradient id="paint0_radial_44_649" cx="0" cy="0" r="1" gradientTransform="matrix(-1.38924 121.508 -204.027 -2.49165 246.476 739.754)" gradientUnits="userSpaceOnUse">
<stop stop-color="white" stop-opacity="0.8"/>
<stop offset="1" stop-color="#05041F"/>
</radialGradient>
<radialGradient id="paint1_radial_44_649" cx="0" cy="0" r="1" gradientUnits="userSpaceOnUse" gradientTransform="translate(879.605 223.706) rotate(90) scale(129.009 216.619)">
<stop stop-color="white" stop-opacity="0.8"/>
<stop offset="1" stop-color="#05041F"/>
</radialGradient>
<radialGradient id="paint2_radial_44_649" cx="0" cy="0" r="1" gradientTransform="matrix(-4.16696 124.508 -209.085 -7.4743 720.013 1246.79)" gradientUnits="userSpaceOnUse">
<stop stop-color="white" stop-opacity="0.8"/>
<stop offset="1" stop-color="#05041F"/>
</radialGradient>
<radialGradient id="paint3_radial_44_649" cx="0" cy="0" r="1" gradientTransform="matrix(-1.38883 121.508 -204.027 -2.49091 1358.81 909.262)" gradientUnits="userSpaceOnUse">
<stop stop-color="white" stop-opacity="0.8"/>
<stop offset="1" stop-color="#05041F"/>
</radialGradient>
<radialGradient id="paint4_radial_44_649" cx="0" cy="0" r="1" gradientUnits="userSpaceOnUse" gradientTransform="translate(879.716 736.751) rotate(90) scale(132.009 221.655)">
<stop stop-color="white" stop-opacity="0.8"/>
<stop offset="1" stop-color="#05041F"/>
</radialGradient>
<radialGradient id="paint5_radial_44_649" cx="0" cy="0" r="1" gradientTransform="matrix(-1.38924 121.508 -204.027 -2.49165 246.476 2234.75)" gradientUnits="userSpaceOnUse">
<stop stop-color="white" stop-opacity="0.8"/>
<stop offset="1" stop-color="#05041F"/>
</radialGradient>
<radialGradient id="paint6_radial_44_649" cx="0" cy="0" r="1" gradientUnits="userSpaceOnUse" gradientTransform="translate(879.605 1718.71) rotate(90) scale(129.009 216.619)">
<stop stop-color="white" stop-opacity="0.8"/>
<stop offset="1" stop-color="#05041F"/>
</radialGradient>
<radialGradient id="paint7_radial_44_649" cx="0" cy="0" r="1" gradientUnits="userSpaceOnUse" gradientTransform="translate(403.433 1547.79) rotate(90) scale(129.009 216.619)">
<stop stop-color="white" stop-opacity="0.8"/>
<stop offset="1" stop-color="#05041F"/>
</radialGradient>
<radialGradient id="paint8_radial_44_649" cx="0" cy="0" r="1" gradientUnits="userSpaceOnUse" gradientTransform="translate(1356.43 1889.79) rotate(90) scale(129.009 216.619)">
<stop stop-color="white" stop-opacity="0.8"/>
<stop offset="1" stop-color="#05041F"/>
</radialGradient>
<radialGradient id="paint9_radial_44_649" cx="0" cy="0" r="1" gradientTransform="matrix(-4.16696 124.508 -209.085 -7.4743 720.013 2741.79)" gradientUnits="userSpaceOnUse">
<stop stop-color="white" stop-opacity="0.8"/>
<stop offset="1" stop-color="#05041F"/>
</radialGradient>
<radialGradient id="paint10_radial_44_649" cx="0" cy="0" r="1" gradientTransform="matrix(-1.38883 121.508 -204.027 -2.49091 1358.81 2404.26)" gradientUnits="userSpaceOnUse">
<stop stop-color="white" stop-opacity="0.8"/>
<stop offset="1" stop-color="#05041F"/>
</radialGradient>
<radialGradient id="paint11_radial_44_649" cx="0" cy="0" r="1" gradientUnits="userSpaceOnUse" gradientTransform="translate(879.716 2231.75) rotate(90) scale(132.009 221.655)">
<stop stop-color="white" stop-opacity="0.8"/>
<stop offset="1" stop-color="#05041F"/>
</radialGradient>
<radialGradient id="paint12_radial_44_649" cx="0" cy="0" r="1" gradientTransform="matrix(-1.38924 121.508 -204.027 -2.49165 1040.13 3557.51)" gradientUnits="userSpaceOnUse">
<stop stop-color="white" stop-opacity="0.8"/>
<stop offset="1" stop-color="#05041F"/>
</radialGradient>
<radialGradient id="paint13_radial_44_649" cx="0" cy="0" r="1" gradientUnits="userSpaceOnUse" gradientTransform="translate(879.605 3213.71) rotate(90) scale(129.009 216.619)">
<stop stop-color="white" stop-opacity="0.8"/>
<stop offset="1" stop-color="#05041F"/>
</radialGradient>
<radialGradient id="paint14_radial_44_649" cx="0" cy="0" r="1" gradientUnits="userSpaceOnUse" gradientTransform="translate(403.433 3042.79) rotate(90) scale(129.009 216.619)">
<stop stop-color="white" stop-opacity="0.8"/>
<stop offset="1" stop-color="#05041F"/>
</radialGradient>
<radialGradient id="paint15_radial_44_649" cx="0" cy="0" r="1" gradientUnits="userSpaceOnUse" gradientTransform="translate(1356.43 3384.79) rotate(90) scale(129.009 216.619)">
<stop stop-color="white" stop-opacity="0.8"/>
<stop offset="1" stop-color="#05041F"/>
</radialGradient>
<radialGradient id="paint16_radial_44_649" cx="0" cy="0" r="1" gradientTransform="matrix(-1.38883 121.508 -204.027 -2.49091 90.52 3898.58)" gradientUnits="userSpaceOnUse">
<stop stop-color="white" stop-opacity="0.8"/>
<stop offset="1" stop-color="#05041F"/>
</radialGradient>
<radialGradient id="paint17_radial_44_649" cx="0" cy="0" r="1" gradientUnits="userSpaceOnUse" gradientTransform="translate(403.542 3383.51) rotate(90) scale(132.009 221.655)">
<stop stop-color="white" stop-opacity="0.8"/>
<stop offset="1" stop-color="#05041F"/>
</radialGradient>
<radialGradient id="paint18_radial_44_649" cx="0" cy="0" r="1" gradientTransform="matrix(-1.38924 121.508 -204.027 -2.49165 246.476 4586.75)" gradientUnits="userSpaceOnUse">
<stop stop-color="white" stop-opacity="0.8"/>
<stop offset="1" stop-color="#05041F"/>
</radialGradient>
<radialGradient id="paint19_radial_44_649" cx="0" cy="0" r="1" gradientUnits="userSpaceOnUse" gradientTransform="translate(879.605 4070.71) rotate(90) scale(129.009 216.619)">
<stop stop-color="white" stop-opacity="0.8"/>
<stop offset="1" stop-color="#05041F"/>
</radialGradient>
<radialGradient id="paint20_radial_44_649" cx="0" cy="0" r="1" gradientTransform="matrix(-4.16696 124.508 -209.085 -7.4743 720.013 5093.79)" gradientUnits="userSpaceOnUse">
<stop stop-color="white" stop-opacity="0.8"/>
<stop offset="1" stop-color="#05041F"/>
</radialGradient>
<radialGradient id="paint21_radial_44_649" cx="0" cy="0" r="1" gradientTransform="matrix(-1.38883 121.508 -204.027 -2.49091 1358.81 4756.26)" gradientUnits="userSpaceOnUse">
<stop stop-color="white" stop-opacity="0.8"/>
<stop offset="1" stop-color="#05041F"/>
</radialGradient>
<radialGradient id="paint22_radial_44_649" cx="0" cy="0" r="1" gradientUnits="userSpaceOnUse" gradientTransform="translate(879.716 4583.75) rotate(90) scale(132.009 221.655)">
<stop stop-color="white" stop-opacity="0.8"/>
<stop offset="1" stop-color="#05041F"/>
</radialGradient>
<clipPath id="clip0_44_649">
<rect width="2160" height="1529" fill="white" transform="translate(-205 -326)"/>
</clipPath>
<clipPath id="clip1_44_649">
<rect width="2160" height="1529" fill="white" transform="translate(-205 1169)"/>
</clipPath>
<clipPath id="clip2_44_649">
<rect width="2160" height="1529" fill="white" transform="translate(-205 2664)"/>
</clipPath>
<clipPath id="clip3_44_649">
<rect width="2160" height="1529" fill="white" transform="translate(-205 3521)"/>
</clipPath>
<clipPath id="clip4_44_649">
<rect width="2160" height="1529" fill="white" transform="translate(-205 5016)"/>
</clipPath>
</defs>
</svg>
