<?xml version="1.0" encoding="utf-8" ?><svg xmlns="http://www.w3.org/2000/svg" xmlns:xlink="http://www.w3.org/1999/xlink" width="1024" height="1024" viewBox="0 0 1024 1024"><path fill="#F1F1F1" d="M418.52 347.726C428.456 347.258 440.232 348.323 450.213 349.112C455.466 362.598 464.559 378.791 470.757 392.22C473.863 398.95 478.77 407.219 480.514 414.279C471.141 406.878 451.687 401.037 439.956 399.829C405.891 396.321 375.53 404.227 348.894 426.164C325.705 446.082 309.225 475.181 306.622 505.759C297.855 608.75 417.342 673.723 497.835 607.896C516.269 592.82 536.922 565.634 539.212 541.228C539.995 541.709 541.9 542.923 542.267 543.604C547.963 554.162 553.445 567.534 558.509 578.355C561.93 585.94 566.52 593.527 569.506 600.926C567.855 607.913 555.374 623.668 550.206 629.427C520.512 662.522 476.928 684.289 432.287 686.231C387.276 688.268 343.317 672.228 310.196 641.68C277.327 610.975 257.87 568.563 256.035 523.621C252.851 442.129 308.626 370.349 386.762 351.365C398.299 348.562 406.8 348.157 418.52 347.726Z"/><path fill="#F1F1F1" d="M472.934 339.961C478.484 343.363 484.679 348.112 490.248 351.889C510.635 365.717 530.542 380.345 550.889 394.27C571.401 408.094 591.782 422.112 612.028 436.323C618.646 441.017 628.09 446.874 634.026 452.036C626.362 453.025 585.551 450.985 582.179 453.011C581.917 457.725 597.566 485.937 600.006 492.064C602.898 499.325 608.966 511.57 612.517 519.021C619.899 534.508 626.396 552.937 636.182 566.877C638.762 559.228 642.483 551.589 645.821 544.174L661.558 509.364C676.624 475.136 692.041 441.063 707.806 407.152C713.359 395.293 718.841 383.4 724.249 371.474C726.739 366.065 733.01 354.128 733.739 349.077C751.8 348.241 772.213 348.635 790.452 348.574C788.577 355.012 784.344 360.625 781.573 366.786C777.19 376.526 772.854 386.207 768.01 395.731C757.07 420.386 745.389 444.779 734.149 469.261L679.139 590.127L651.472 652.288C647.057 662.199 641.603 677.519 635.308 685.717C632.315 674.506 623.069 657.601 617.925 646.779L586.733 581.185C558.105 521.704 529.922 462.01 502.185 402.109C495.407 387.422 487.924 372.939 481.019 358.305C478.954 353.93 476.437 350.012 475.704 345.115C475.542 344.027 475.494 344.077 474.806 343.194L473.715 344.098L473.02 344.028C472.322 342.605 472.691 341.566 472.934 339.961Z"/></svg>